<svg xmlns="http://www.w3.org/2000/svg" xmlns:xlink="http://www.w3.org/1999/xlink" contentStyleType="text/css" height="349px" preserveAspectRatio="none" style="width:397px;height:349px;background:#FFFFFF;" version="1.1" viewBox="0 0 397 349" width="397px" zoomAndPan="magnify"><defs/><g><text fill="#000000" font-family="sans-serif" font-size="10" lengthAdjust="spacing" textLength="14.7461" x="0.627" y="23.2822">Mo</text><text fill="#000000" font-family="sans-serif" font-size="10" lengthAdjust="spacing" textLength="12.4463" x="17.7769" y="23.2822">Tu</text><text fill="#000000" font-family="sans-serif" font-size="10" lengthAdjust="spacing" textLength="16.04" x="32" y="23.2822">We</text><text fill="#000000" font-family="sans-serif" font-size="10" lengthAdjust="spacing" textLength="12.4463" x="49.7769" y="23.2822">Th</text><text fill="#000000" font-family="sans-serif" font-size="10" lengthAdjust="spacing" textLength="9.8633" x="67.0684" y="23.2822">Fr</text><text fill="#000000" font-family="sans-serif" font-size="10" lengthAdjust="spacing" textLength="12.4756" x="81.7622" y="23.2822">Sa</text><text fill="#000000" font-family="sans-serif" font-size="10" lengthAdjust="spacing" textLength="12.6855" x="97.6572" y="23.2822">Su</text><text fill="#000000" font-family="sans-serif" font-size="10" lengthAdjust="spacing" textLength="14.7461" x="112.627" y="23.2822">Mo</text><text fill="#000000" font-family="sans-serif" font-size="10" lengthAdjust="spacing" textLength="12.7246" x="1.6377" y="35.2822">14</text><text fill="#000000" font-family="sans-serif" font-size="10" lengthAdjust="spacing" textLength="12.7246" x="17.6377" y="35.2822">15</text><text fill="#000000" font-family="sans-serif" font-size="10" lengthAdjust="spacing" textLength="12.7246" x="33.6377" y="35.2822">16</text><text fill="#000000" font-family="sans-serif" font-size="10" lengthAdjust="spacing" textLength="12.7246" x="49.6377" y="35.2822">17</text><text fill="#000000" font-family="sans-serif" font-size="10" lengthAdjust="spacing" textLength="12.7246" x="65.6377" y="35.2822">18</text><text fill="#000000" font-family="sans-serif" font-size="10" lengthAdjust="spacing" textLength="12.7246" x="81.6377" y="35.2822">19</text><text fill="#000000" font-family="sans-serif" font-size="10" lengthAdjust="spacing" textLength="12.7246" x="97.6377" y="35.2822">20</text><text fill="#000000" font-family="sans-serif" font-size="10" lengthAdjust="spacing" textLength="12.7246" x="113.6377" y="35.2822">21</text><text fill="#000000" font-family="sans-serif" font-size="12" font-weight="bold" lengthAdjust="spacing" textLength="91.5176" x="18.2412" y="11.1387">October 2024</text><line style="stroke:#C0C0C0;stroke-width:1.0;" x1="0" x2="0" y1="39" y2="307.875"/><line style="stroke:#C0C0C0;stroke-width:1.0;" x1="16" x2="16" y1="39" y2="307.875"/><line style="stroke:#C0C0C0;stroke-width:1.0;" x1="32" x2="32" y1="39" y2="307.875"/><line style="stroke:#C0C0C0;stroke-width:1.0;" x1="48" x2="48" y1="39" y2="307.875"/><line style="stroke:#C0C0C0;stroke-width:1.0;" x1="64" x2="64" y1="39" y2="307.875"/><line style="stroke:#C0C0C0;stroke-width:1.0;" x1="80" x2="80" y1="39" y2="307.875"/><line style="stroke:#C0C0C0;stroke-width:1.0;" x1="96" x2="96" y1="39" y2="307.875"/><line style="stroke:#C0C0C0;stroke-width:1.0;" x1="112" x2="112" y1="39" y2="307.875"/><line style="stroke:#C0C0C0;stroke-width:1.0;" x1="128" x2="128" y1="39" y2="307.875"/><line style="stroke:#C0C0C0;stroke-width:1.0;" x1="0" x2="128" y1="39" y2="39"/><line style="stroke:#C0C0C0;stroke-width:1.0;" x1="0" x2="128" y1="307.875" y2="307.875"/><line style="stroke:#181818;stroke-width:1.5;" x1="55" x2="55" y1="255.4609" y2="265.8633"/><line style="stroke:#181818;stroke-width:1.5;" x1="55" x2="63" y1="265.8633" y2="265.8633"/><polygon fill="#181818" points="59,261.8633,59,265.8633,59,269.8633,63,265.8633" style="stroke:#181818;stroke-width:1.5;"/><rect fill="#F0E68C" height="12.8047" style="stroke:none;stroke-width:1.0;" width="60" x="2" y="41"/><line style="stroke:#8B0000;stroke-width:1.0;" x1="2" x2="62" y1="41" y2="41"/><line style="stroke:#8B0000;stroke-width:1.0;" x1="2" x2="62" y1="53.8047" y2="53.8047"/><line style="stroke:#8B0000;stroke-width:1.0;" x1="2" x2="2" y1="41" y2="53.8047"/><line style="stroke:#8B0000;stroke-width:1.0;" x1="62" x2="62" y1="41" y2="53.8047"/><rect fill="#F0E68C" height="12.8047" style="stroke:none;stroke-width:1.0;" width="124" x="2" y="57.8047"/><line style="stroke:#8B0000;stroke-width:1.0;" x1="2" x2="126" y1="57.8047" y2="57.8047"/><line style="stroke:#8B0000;stroke-width:1.0;" x1="2" x2="126" y1="70.6094" y2="70.6094"/><line style="stroke:#8B0000;stroke-width:1.0;" x1="2" x2="2" y1="57.8047" y2="70.6094"/><line style="stroke:#8B0000;stroke-width:1.0;" x1="126" x2="126" y1="57.8047" y2="70.6094"/><rect fill="#F0E68C" height="12.8047" style="stroke:none;stroke-width:1.0;" width="60" x="66" y="74.6094"/><line style="stroke:#8B0000;stroke-width:1.0;" x1="66" x2="126" y1="74.6094" y2="74.6094"/><line style="stroke:#8B0000;stroke-width:1.0;" x1="66" x2="126" y1="87.4141" y2="87.4141"/><line style="stroke:#8B0000;stroke-width:1.0;" x1="66" x2="66" y1="74.6094" y2="87.4141"/><line style="stroke:#8B0000;stroke-width:1.0;" x1="126" x2="126" y1="74.6094" y2="87.4141"/><rect fill="#E2E2F0" height="12.8047" style="stroke:none;stroke-width:1.0;" width="60" x="66" y="91.4141"/><line style="stroke:#181818;stroke-width:1.0;" x1="66" x2="126" y1="91.4141" y2="91.4141"/><line style="stroke:#181818;stroke-width:1.0;" x1="66" x2="126" y1="104.2188" y2="104.2188"/><line style="stroke:#181818;stroke-width:1.0;" x1="66" x2="66" y1="91.4141" y2="104.2188"/><line style="stroke:#181818;stroke-width:1.0;" x1="126" x2="126" y1="91.4141" y2="104.2188"/><rect fill="#E2E2F0" height="12.8047" style="stroke:none;stroke-width:1.0;" width="60" x="66" y="108.2188"/><line style="stroke:#181818;stroke-width:1.0;" x1="66" x2="126" y1="108.2188" y2="108.2188"/><line style="stroke:#181818;stroke-width:1.0;" x1="66" x2="126" y1="121.0234" y2="121.0234"/><line style="stroke:#181818;stroke-width:1.0;" x1="66" x2="66" y1="108.2188" y2="121.0234"/><line style="stroke:#181818;stroke-width:1.0;" x1="126" x2="126" y1="108.2188" y2="121.0234"/><rect fill="#E2E2F0" height="12.8047" style="stroke:none;stroke-width:1.0;" width="60" x="66" y="125.0234"/><line style="stroke:#181818;stroke-width:1.0;" x1="66" x2="126" y1="125.0234" y2="125.0234"/><line style="stroke:#181818;stroke-width:1.0;" x1="66" x2="126" y1="137.8281" y2="137.8281"/><line style="stroke:#181818;stroke-width:1.0;" x1="66" x2="66" y1="125.0234" y2="137.8281"/><line style="stroke:#181818;stroke-width:1.0;" x1="126" x2="126" y1="125.0234" y2="137.8281"/><rect fill="#E2E2F0" height="12.8047" style="stroke:none;stroke-width:1.0;" width="60" x="66" y="141.8281"/><line style="stroke:#181818;stroke-width:1.0;" x1="66" x2="126" y1="141.8281" y2="141.8281"/><line style="stroke:#181818;stroke-width:1.0;" x1="66" x2="126" y1="154.6328" y2="154.6328"/><line style="stroke:#181818;stroke-width:1.0;" x1="66" x2="66" y1="141.8281" y2="154.6328"/><line style="stroke:#181818;stroke-width:1.0;" x1="126" x2="126" y1="141.8281" y2="154.6328"/><rect fill="#E2E2F0" height="12.8047" style="stroke:none;stroke-width:1.0;" width="60" x="66" y="158.6328"/><line style="stroke:#181818;stroke-width:1.0;" x1="66" x2="126" y1="158.6328" y2="158.6328"/><line style="stroke:#181818;stroke-width:1.0;" x1="66" x2="126" y1="171.4375" y2="171.4375"/><line style="stroke:#181818;stroke-width:1.0;" x1="66" x2="66" y1="158.6328" y2="171.4375"/><line style="stroke:#181818;stroke-width:1.0;" x1="126" x2="126" y1="158.6328" y2="171.4375"/><rect fill="#E2E2F0" height="12.8047" style="stroke:none;stroke-width:1.0;" width="60" x="66" y="175.4375"/><line style="stroke:#181818;stroke-width:1.0;" x1="66" x2="126" y1="175.4375" y2="175.4375"/><line style="stroke:#181818;stroke-width:1.0;" x1="66" x2="126" y1="188.2422" y2="188.2422"/><line style="stroke:#181818;stroke-width:1.0;" x1="66" x2="66" y1="175.4375" y2="188.2422"/><line style="stroke:#181818;stroke-width:1.0;" x1="126" x2="126" y1="175.4375" y2="188.2422"/><rect fill="#E2E2F0" height="12.8047" style="stroke:none;stroke-width:1.0;" width="60" x="66" y="192.2422"/><line style="stroke:#181818;stroke-width:1.0;" x1="66" x2="126" y1="192.2422" y2="192.2422"/><line style="stroke:#181818;stroke-width:1.0;" x1="66" x2="126" y1="205.0469" y2="205.0469"/><line style="stroke:#181818;stroke-width:1.0;" x1="66" x2="66" y1="192.2422" y2="205.0469"/><line style="stroke:#181818;stroke-width:1.0;" x1="126" x2="126" y1="192.2422" y2="205.0469"/><rect fill="#F0E68C" height="12.8047" style="stroke:none;stroke-width:1.0;" width="124" x="2" y="209.0469"/><line style="stroke:#8B0000;stroke-width:1.0;" x1="2" x2="126" y1="209.0469" y2="209.0469"/><line style="stroke:#8B0000;stroke-width:1.0;" x1="2" x2="126" y1="221.8516" y2="221.8516"/><line style="stroke:#8B0000;stroke-width:1.0;" x1="2" x2="2" y1="209.0469" y2="221.8516"/><line style="stroke:#8B0000;stroke-width:1.0;" x1="126" x2="126" y1="209.0469" y2="221.8516"/><rect fill="#F0E68C" height="12.8047" style="stroke:none;stroke-width:1.0;" width="124" x="2" y="225.8516"/><line style="stroke:#8B0000;stroke-width:1.0;" x1="2" x2="126" y1="225.8516" y2="225.8516"/><line style="stroke:#8B0000;stroke-width:1.0;" x1="2" x2="126" y1="238.6563" y2="238.6563"/><line style="stroke:#8B0000;stroke-width:1.0;" x1="2" x2="2" y1="225.8516" y2="238.6563"/><line style="stroke:#8B0000;stroke-width:1.0;" x1="126" x2="126" y1="225.8516" y2="238.6563"/><rect fill="#E2E2F0" height="12.8047" style="stroke:none;stroke-width:1.0;" width="60" x="2" y="242.6563"/><line style="stroke:#181818;stroke-width:1.0;" x1="2" x2="62" y1="242.6563" y2="242.6563"/><line style="stroke:#181818;stroke-width:1.0;" x1="2" x2="62" y1="255.4609" y2="255.4609"/><line style="stroke:#181818;stroke-width:1.0;" x1="2" x2="2" y1="242.6563" y2="255.4609"/><line style="stroke:#181818;stroke-width:1.0;" x1="62" x2="62" y1="242.6563" y2="255.4609"/><rect fill="#E2E2F0" height="12.8047" style="stroke:none;stroke-width:1.0;" width="60" x="66" y="259.4609"/><line style="stroke:#181818;stroke-width:1.0;" x1="66" x2="126" y1="259.4609" y2="259.4609"/><line style="stroke:#181818;stroke-width:1.0;" x1="66" x2="126" y1="272.2656" y2="272.2656"/><line style="stroke:#181818;stroke-width:1.0;" x1="66" x2="66" y1="259.4609" y2="272.2656"/><line style="stroke:#181818;stroke-width:1.0;" x1="126" x2="126" y1="259.4609" y2="272.2656"/><rect fill="#F0E68C" height="12.8047" style="stroke:none;stroke-width:1.0;" width="124" x="2" y="276.2656"/><line style="stroke:#8B0000;stroke-width:1.0;" x1="2" x2="126" y1="276.2656" y2="276.2656"/><line style="stroke:#8B0000;stroke-width:1.0;" x1="2" x2="126" y1="289.0703" y2="289.0703"/><line style="stroke:#8B0000;stroke-width:1.0;" x1="2" x2="2" y1="276.2656" y2="289.0703"/><line style="stroke:#8B0000;stroke-width:1.0;" x1="126" x2="126" y1="276.2656" y2="289.0703"/><rect fill="#E2E2F0" height="12.8047" style="stroke:none;stroke-width:1.0;" width="124" x="2" y="293.0703"/><line style="stroke:#181818;stroke-width:1.0;" x1="2" x2="126" y1="293.0703" y2="293.0703"/><line style="stroke:#181818;stroke-width:1.0;" x1="2" x2="126" y1="305.875" y2="305.875"/><line style="stroke:#181818;stroke-width:1.0;" x1="2" x2="2" y1="293.0703" y2="305.875"/><line style="stroke:#181818;stroke-width:1.0;" x1="126" x2="126" y1="293.0703" y2="305.875"/><text fill="#000000" font-family="sans-serif" font-size="11" lengthAdjust="spacing" textLength="182.2358" x="66" y="51.2104">Requirements elicitation {Rosie}</text><text fill="#000000" font-family="sans-serif" font-size="11" lengthAdjust="spacing" textLength="243.0474" x="130" y="68.0151">Architecture {James G} {James S} {Artem}</text><text fill="#000000" font-family="sans-serif" font-size="11" lengthAdjust="spacing" textLength="87.3447" x="130" y="84.8198">Implementation</text><text fill="#000000" font-family="sans-serif" font-size="11" lengthAdjust="spacing" textLength="107.0083" x="130" y="101.6245">Add more buildings</text><text fill="#000000" font-family="sans-serif" font-size="11" lengthAdjust="spacing" textLength="54.3608" x="130" y="118.4292">Add timer</text><text fill="#000000" font-family="sans-serif" font-size="11" lengthAdjust="spacing" textLength="249.5356" x="130" y="135.2339">Design a map (river, hills, unplaceable spots)</text><text fill="#000000" font-family="sans-serif" font-size="11" lengthAdjust="spacing" textLength="142.7905" x="130" y="152.0386">Add textures for buildings</text><text fill="#000000" font-family="sans-serif" font-size="11" lengthAdjust="spacing" textLength="103.3237" x="130" y="168.8433">Add a map texture</text><text fill="#000000" font-family="sans-serif" font-size="11" lengthAdjust="spacing" textLength="179.3462" x="130" y="185.6479">Add sounds for placing buildings</text><text fill="#000000" font-family="sans-serif" font-size="11" lengthAdjust="spacing" textLength="57.5083" x="130" y="202.4526">Add music</text><text fill="#000000" font-family="sans-serif" font-size="11" lengthAdjust="spacing" textLength="219.0708" x="130" y="219.2573">Method selection and planning {Adam}</text><text fill="#000000" font-family="sans-serif" font-size="11" lengthAdjust="spacing" textLength="265.2783" x="130" y="236.062">Risk assessment and mitigation {Alex} {Abbie}</text><text fill="#000000" font-family="sans-serif" font-size="11" lengthAdjust="spacing" textLength="106.7988" x="66" y="252.8667">Plan format of risks</text><text fill="#000000" font-family="sans-serif" font-size="11" lengthAdjust="spacing" textLength="116.6763" x="130" y="269.6714">Maintain risk register</text><text fill="#000000" font-family="sans-serif" font-size="11" lengthAdjust="spacing" textLength="44.4941" x="6" y="286.4761">Website</text><text fill="#000000" font-family="sans-serif" font-size="11" lengthAdjust="spacing" textLength="252.3286" x="130" y="303.2808">Update website with ongoing project changes</text><text fill="#000000" font-family="sans-serif" font-size="10" lengthAdjust="spacing" textLength="14.7461" x="0.627" y="317.1572">Mo</text><text fill="#000000" font-family="sans-serif" font-size="10" lengthAdjust="spacing" textLength="12.4463" x="17.7769" y="317.1572">Tu</text><text fill="#000000" font-family="sans-serif" font-size="10" lengthAdjust="spacing" textLength="16.04" x="32" y="317.1572">We</text><text fill="#000000" font-family="sans-serif" font-size="10" lengthAdjust="spacing" textLength="12.4463" x="49.7769" y="317.1572">Th</text><text fill="#000000" font-family="sans-serif" font-size="10" lengthAdjust="spacing" textLength="9.8633" x="67.0684" y="317.1572">Fr</text><text fill="#000000" font-family="sans-serif" font-size="10" lengthAdjust="spacing" textLength="12.4756" x="81.7622" y="317.1572">Sa</text><text fill="#000000" font-family="sans-serif" font-size="10" lengthAdjust="spacing" textLength="12.6855" x="97.6572" y="317.1572">Su</text><text fill="#000000" font-family="sans-serif" font-size="10" lengthAdjust="spacing" textLength="14.7461" x="112.627" y="317.1572">Mo</text><text fill="#000000" font-family="sans-serif" font-size="10" lengthAdjust="spacing" textLength="12.7246" x="1.6377" y="331.1572">14</text><text fill="#000000" font-family="sans-serif" font-size="10" lengthAdjust="spacing" textLength="12.7246" x="17.6377" y="331.1572">15</text><text fill="#000000" font-family="sans-serif" font-size="10" lengthAdjust="spacing" textLength="12.7246" x="33.6377" y="331.1572">16</text><text fill="#000000" font-family="sans-serif" font-size="10" lengthAdjust="spacing" textLength="12.7246" x="49.6377" y="331.1572">17</text><text fill="#000000" font-family="sans-serif" font-size="10" lengthAdjust="spacing" textLength="12.7246" x="65.6377" y="331.1572">18</text><text fill="#000000" font-family="sans-serif" font-size="10" lengthAdjust="spacing" textLength="12.7246" x="81.6377" y="331.1572">19</text><text fill="#000000" font-family="sans-serif" font-size="10" lengthAdjust="spacing" textLength="12.7246" x="97.6377" y="331.1572">20</text><text fill="#000000" font-family="sans-serif" font-size="10" lengthAdjust="spacing" textLength="12.7246" x="113.6377" y="331.1572">21</text><text fill="#000000" font-family="sans-serif" font-size="12" font-weight="bold" lengthAdjust="spacing" textLength="91.5176" x="18.2412" y="346.0137">October 2024</text><!--SRC=[bLPHKzf047xFhzYtubIiA7OOdwIbTOeoTR3O1yQ7Ix8cMvAxzEw2EXt_U_T8q4WIGPvkRh_zTc-__O0pOuMsaP3MUZ6521gDKRaEqC2TKjPN3zvyYdzpqfYYj0OmeO2iiAJaBIW9_wRA43vnuWfae0-XU3GWP0Xa8529qiX72HUnMD2daT2BAOQUDn_g82QBWSqr5bHZaJB1-TFwTCsdeRQOLkYF3dVb_v5coQhfijbdYkCTAUR3C8IKO-3db8Ga8tEx-Su2P2b5tH0ReQ58We1KPD3Hj4Iz3p4bYTc7N6Q9253u2OB9b3LxRUJuu4Ra1D5REobAbIaj61POXWMTQu7PjjAckQ6W7kFFV88sLaoA2Kl9WrwDbNcbPBv2rs4egXBsJdQLS4fc0S8ONaedv2eZ9KjHPV-62JwuFV7zLskuiyXNtAgRHIeig3lGNB9f2XD1l4cSxW0SZiZOLvhtrZEP_qRVy69NIOvtR6QMXS8Yt1SCS4ysvaT6occKQVM7Hmn1B6I4hteyAKjVbP2LgvrNZlhTtc6tr_VUSd697dqyz6gsB6CycmhP1WRTDgt3Hxswynf81dLKZQR9VirK5Gys0zvhn3VAjBYnFMF3akt0jttPdbUQin6mrP_D0cz9gacrpQYL5TkAhP4tExHAsMREbySratmmhbfx_cOhLNDNwpzVrdf_bw6hbEzAhFLvnZV5hxhd7cvdaqlWdJTEojw1GnuCVBJYk3EJ2wdk9NydfHcn0voDzhpE-TKb57y48EHXQF9pfywUDnPB0TDSEjmf_CnGZaSNwmlu9fUabNIwUkERoGlWSx_xXInSe-Osu6RYZV1Ev8dbZ42v3J-5sQ_ltO5toK_AHSJSABslx0Yh7pbs_Hy0]--></g></svg>