<svg xmlns="http://www.w3.org/2000/svg" xmlns:xlink="http://www.w3.org/1999/xlink" contentStyleType="text/css" height="315px" preserveAspectRatio="none" style="width:460px;height:315px;background:#FFFFFF;" version="1.1" viewBox="0 0 460 315" width="460px" zoomAndPan="magnify"><defs/><g><text fill="#000000" font-family="sans-serif" font-size="10" lengthAdjust="spacing" textLength="14.7461" x="0.627" y="23.2822">Mo</text><text fill="#000000" font-family="sans-serif" font-size="10" lengthAdjust="spacing" textLength="12.4463" x="17.7769" y="23.2822">Tu</text><text fill="#000000" font-family="sans-serif" font-size="10" lengthAdjust="spacing" textLength="16.04" x="32" y="23.2822">We</text><text fill="#000000" font-family="sans-serif" font-size="10" lengthAdjust="spacing" textLength="12.4463" x="49.7769" y="23.2822">Th</text><text fill="#000000" font-family="sans-serif" font-size="10" lengthAdjust="spacing" textLength="9.8633" x="67.0684" y="23.2822">Fr</text><text fill="#000000" font-family="sans-serif" font-size="10" lengthAdjust="spacing" textLength="12.4756" x="81.7622" y="23.2822">Sa</text><text fill="#000000" font-family="sans-serif" font-size="10" lengthAdjust="spacing" textLength="12.6855" x="97.6572" y="23.2822">Su</text><text fill="#000000" font-family="sans-serif" font-size="10" lengthAdjust="spacing" textLength="14.7461" x="112.627" y="23.2822">Mo</text><text fill="#000000" font-family="sans-serif" font-size="10" lengthAdjust="spacing" textLength="6.3623" x="4.8188" y="35.2822">7</text><text fill="#000000" font-family="sans-serif" font-size="10" lengthAdjust="spacing" textLength="6.3623" x="20.8188" y="35.2822">8</text><text fill="#000000" font-family="sans-serif" font-size="10" lengthAdjust="spacing" textLength="6.3623" x="36.8188" y="35.2822">9</text><text fill="#000000" font-family="sans-serif" font-size="10" lengthAdjust="spacing" textLength="12.7246" x="49.6377" y="35.2822">10</text><text fill="#000000" font-family="sans-serif" font-size="10" lengthAdjust="spacing" textLength="12.7246" x="65.6377" y="35.2822">11</text><text fill="#000000" font-family="sans-serif" font-size="10" lengthAdjust="spacing" textLength="12.7246" x="81.6377" y="35.2822">12</text><text fill="#000000" font-family="sans-serif" font-size="10" lengthAdjust="spacing" textLength="12.7246" x="97.6377" y="35.2822">13</text><text fill="#000000" font-family="sans-serif" font-size="10" lengthAdjust="spacing" textLength="12.7246" x="113.6377" y="35.2822">14</text><text fill="#000000" font-family="sans-serif" font-size="12" font-weight="bold" lengthAdjust="spacing" textLength="91.5176" x="18.2412" y="11.1387">October 2024</text><line style="stroke:#C0C0C0;stroke-width:1.0;" x1="0" x2="0" y1="39" y2="274.2656"/><line style="stroke:#C0C0C0;stroke-width:1.0;" x1="16" x2="16" y1="39" y2="274.2656"/><line style="stroke:#C0C0C0;stroke-width:1.0;" x1="32" x2="32" y1="39" y2="274.2656"/><line style="stroke:#C0C0C0;stroke-width:1.0;" x1="48" x2="48" y1="39" y2="274.2656"/><line style="stroke:#C0C0C0;stroke-width:1.0;" x1="64" x2="64" y1="39" y2="274.2656"/><line style="stroke:#C0C0C0;stroke-width:1.0;" x1="80" x2="80" y1="39" y2="274.2656"/><line style="stroke:#C0C0C0;stroke-width:1.0;" x1="96" x2="96" y1="39" y2="274.2656"/><line style="stroke:#C0C0C0;stroke-width:1.0;" x1="112" x2="112" y1="39" y2="274.2656"/><line style="stroke:#C0C0C0;stroke-width:1.0;" x1="128" x2="128" y1="39" y2="274.2656"/><line style="stroke:#C0C0C0;stroke-width:1.0;" x1="0" x2="128" y1="39" y2="39"/><line style="stroke:#C0C0C0;stroke-width:1.0;" x1="0" x2="128" y1="274.2656" y2="274.2656"/><line style="stroke:#181818;stroke-width:1.5;" x1="7" x2="7" y1="87.4141" y2="97.8164"/><line style="stroke:#181818;stroke-width:1.5;" x1="7" x2="15" y1="97.8164" y2="97.8164"/><polygon fill="#181818" points="11,93.8164,11,97.8164,11,101.8164,15,97.8164" style="stroke:#181818;stroke-width:1.5;"/><line style="stroke:#181818;stroke-width:1.5;" x1="23" x2="23" y1="104.2188" y2="114.6211"/><line style="stroke:#181818;stroke-width:1.5;" x1="23" x2="31" y1="114.6211" y2="114.6211"/><polygon fill="#181818" points="27,110.6211,27,114.6211,27,118.6211,31,114.6211" style="stroke:#181818;stroke-width:1.5;"/><line style="stroke:#181818;stroke-width:1.5;" x1="55" x2="55" y1="121.0234" y2="131.4258"/><line style="stroke:#181818;stroke-width:1.5;" x1="55" x2="63" y1="131.4258" y2="131.4258"/><polygon fill="#181818" points="59,127.4258,59,131.4258,59,135.4258,63,131.4258" style="stroke:#181818;stroke-width:1.5;"/><line style="stroke:#181818;stroke-width:1.5;" x1="71" x2="71" y1="188.2422" y2="198.6445"/><line style="stroke:#181818;stroke-width:1.5;" x1="71" x2="79" y1="198.6445" y2="198.6445"/><polygon fill="#181818" points="75,194.6445,75,198.6445,75,202.6445,79,198.6445" style="stroke:#181818;stroke-width:1.5;"/><line style="stroke:#181818;stroke-width:1.5;" x1="7" x2="7" y1="87.4141" y2="97.8164"/><line style="stroke:#181818;stroke-width:1.5;" x1="7" x2="15" y1="97.8164" y2="97.8164"/><polygon fill="#181818" points="11,93.8164,11,97.8164,11,101.8164,15,97.8164" style="stroke:#181818;stroke-width:1.5;"/><line style="stroke:#181818;stroke-width:1.5;" x1="23" x2="23" y1="104.2188" y2="114.6211"/><line style="stroke:#181818;stroke-width:1.5;" x1="23" x2="31" y1="114.6211" y2="114.6211"/><polygon fill="#181818" points="27,110.6211,27,114.6211,27,118.6211,31,114.6211" style="stroke:#181818;stroke-width:1.5;"/><line style="stroke:#181818;stroke-width:1.5;" x1="55" x2="55" y1="121.0234" y2="131.4258"/><line style="stroke:#181818;stroke-width:1.5;" x1="55" x2="63" y1="131.4258" y2="131.4258"/><polygon fill="#181818" points="59,127.4258,59,131.4258,59,135.4258,63,131.4258" style="stroke:#181818;stroke-width:1.5;"/><line style="stroke:#181818;stroke-width:1.5;" x1="55" x2="55" y1="121.0234" y2="148.2305"/><line style="stroke:#181818;stroke-width:1.5;" x1="55" x2="63" y1="148.2305" y2="148.2305"/><polygon fill="#181818" points="59,144.2305,59,148.2305,59,152.2305,63,148.2305" style="stroke:#181818;stroke-width:1.5;"/><line style="stroke:#181818;stroke-width:1.5;" x1="71" x2="71" y1="188.2422" y2="198.6445"/><line style="stroke:#181818;stroke-width:1.5;" x1="71" x2="79" y1="198.6445" y2="198.6445"/><polygon fill="#181818" points="75,194.6445,75,198.6445,75,202.6445,79,198.6445" style="stroke:#181818;stroke-width:1.5;"/><rect fill="#F0E68C" height="12.8047" style="stroke:none;stroke-width:1.0;" width="124" x="2" y="41"/><line style="stroke:#8B0000;stroke-width:1.0;" x1="2" x2="126" y1="41" y2="41"/><line style="stroke:#8B0000;stroke-width:1.0;" x1="2" x2="126" y1="53.8047" y2="53.8047"/><line style="stroke:#8B0000;stroke-width:1.0;" x1="2" x2="2" y1="41" y2="53.8047"/><line style="stroke:#8B0000;stroke-width:1.0;" x1="126" x2="126" y1="41" y2="53.8047"/><rect fill="#E2E2F0" height="12.8047" style="stroke:none;stroke-width:1.0;" width="12" x="2" y="57.8047"/><line style="stroke:#181818;stroke-width:1.0;" x1="2" x2="14" y1="57.8047" y2="57.8047"/><line style="stroke:#181818;stroke-width:1.0;" x1="2" x2="14" y1="70.6094" y2="70.6094"/><line style="stroke:#181818;stroke-width:1.0;" x1="2" x2="2" y1="57.8047" y2="70.6094"/><line style="stroke:#181818;stroke-width:1.0;" x1="14" x2="14" y1="57.8047" y2="70.6094"/><rect fill="#E2E2F0" height="12.8047" style="stroke:none;stroke-width:1.0;" width="12" x="2" y="74.6094"/><line style="stroke:#181818;stroke-width:1.0;" x1="2" x2="14" y1="74.6094" y2="74.6094"/><line style="stroke:#181818;stroke-width:1.0;" x1="2" x2="14" y1="87.4141" y2="87.4141"/><line style="stroke:#181818;stroke-width:1.0;" x1="2" x2="2" y1="74.6094" y2="87.4141"/><line style="stroke:#181818;stroke-width:1.0;" x1="14" x2="14" y1="74.6094" y2="87.4141"/><rect fill="#E2E2F0" height="12.8047" style="stroke:none;stroke-width:1.0;" width="12" x="18" y="91.4141"/><line style="stroke:#181818;stroke-width:1.0;" x1="18" x2="30" y1="91.4141" y2="91.4141"/><line style="stroke:#181818;stroke-width:1.0;" x1="18" x2="30" y1="104.2188" y2="104.2188"/><line style="stroke:#181818;stroke-width:1.0;" x1="18" x2="18" y1="91.4141" y2="104.2188"/><line style="stroke:#181818;stroke-width:1.0;" x1="30" x2="30" y1="91.4141" y2="104.2188"/><rect fill="#E2E2F0" height="12.8047" style="stroke:none;stroke-width:1.0;" width="28" x="34" y="108.2188"/><line style="stroke:#181818;stroke-width:1.0;" x1="34" x2="62" y1="108.2188" y2="108.2188"/><line style="stroke:#181818;stroke-width:1.0;" x1="34" x2="62" y1="121.0234" y2="121.0234"/><line style="stroke:#181818;stroke-width:1.0;" x1="34" x2="34" y1="108.2188" y2="121.0234"/><line style="stroke:#181818;stroke-width:1.0;" x1="62" x2="62" y1="108.2188" y2="121.0234"/><rect fill="#E2E2F0" height="12.8047" style="stroke:none;stroke-width:1.0;" width="60" x="66" y="125.0234"/><line style="stroke:#181818;stroke-width:1.0;" x1="66" x2="126" y1="125.0234" y2="125.0234"/><line style="stroke:#181818;stroke-width:1.0;" x1="66" x2="126" y1="137.8281" y2="137.8281"/><line style="stroke:#181818;stroke-width:1.0;" x1="66" x2="66" y1="125.0234" y2="137.8281"/><line style="stroke:#181818;stroke-width:1.0;" x1="126" x2="126" y1="125.0234" y2="137.8281"/><rect fill="#F0E68C" height="12.8047" style="stroke:none;stroke-width:1.0;" width="60" x="66" y="141.8281"/><line style="stroke:#8B0000;stroke-width:1.0;" x1="66" x2="126" y1="141.8281" y2="141.8281"/><line style="stroke:#8B0000;stroke-width:1.0;" x1="66" x2="126" y1="154.6328" y2="154.6328"/><line style="stroke:#8B0000;stroke-width:1.0;" x1="66" x2="66" y1="141.8281" y2="154.6328"/><line style="stroke:#8B0000;stroke-width:1.0;" x1="126" x2="126" y1="141.8281" y2="154.6328"/><rect fill="#F0E68C" height="12.8047" style="stroke:none;stroke-width:1.0;" width="124" x="2" y="158.6328"/><line style="stroke:#8B0000;stroke-width:1.0;" x1="2" x2="126" y1="158.6328" y2="158.6328"/><line style="stroke:#8B0000;stroke-width:1.0;" x1="2" x2="126" y1="171.4375" y2="171.4375"/><line style="stroke:#8B0000;stroke-width:1.0;" x1="2" x2="2" y1="158.6328" y2="171.4375"/><line style="stroke:#8B0000;stroke-width:1.0;" x1="126" x2="126" y1="158.6328" y2="171.4375"/><rect fill="#E2E2F0" height="12.8047" style="stroke:none;stroke-width:1.0;" width="76" x="2" y="175.4375"/><line style="stroke:#181818;stroke-width:1.0;" x1="2" x2="78" y1="175.4375" y2="175.4375"/><line style="stroke:#181818;stroke-width:1.0;" x1="2" x2="78" y1="188.2422" y2="188.2422"/><line style="stroke:#181818;stroke-width:1.0;" x1="2" x2="2" y1="175.4375" y2="188.2422"/><line style="stroke:#181818;stroke-width:1.0;" x1="78" x2="78" y1="175.4375" y2="188.2422"/><rect fill="#E2E2F0" height="12.8047" style="stroke:none;stroke-width:1.0;" width="44" x="82" y="192.2422"/><line style="stroke:#181818;stroke-width:1.0;" x1="82" x2="126" y1="192.2422" y2="192.2422"/><line style="stroke:#181818;stroke-width:1.0;" x1="82" x2="126" y1="205.0469" y2="205.0469"/><line style="stroke:#181818;stroke-width:1.0;" x1="82" x2="82" y1="192.2422" y2="205.0469"/><line style="stroke:#181818;stroke-width:1.0;" x1="126" x2="126" y1="192.2422" y2="205.0469"/><rect fill="#F0E68C" height="12.8047" style="stroke:none;stroke-width:1.0;" width="124" x="2" y="209.0469"/><line style="stroke:#8B0000;stroke-width:1.0;" x1="2" x2="126" y1="209.0469" y2="209.0469"/><line style="stroke:#8B0000;stroke-width:1.0;" x1="2" x2="126" y1="221.8516" y2="221.8516"/><line style="stroke:#8B0000;stroke-width:1.0;" x1="2" x2="2" y1="209.0469" y2="221.8516"/><line style="stroke:#8B0000;stroke-width:1.0;" x1="126" x2="126" y1="209.0469" y2="221.8516"/><rect fill="#E2E2F0" height="12.8047" style="stroke:none;stroke-width:1.0;" width="124" x="2" y="225.8516"/><line style="stroke:#181818;stroke-width:1.0;" x1="2" x2="126" y1="225.8516" y2="225.8516"/><line style="stroke:#181818;stroke-width:1.0;" x1="2" x2="126" y1="238.6563" y2="238.6563"/><line style="stroke:#181818;stroke-width:1.0;" x1="2" x2="2" y1="225.8516" y2="238.6563"/><line style="stroke:#181818;stroke-width:1.0;" x1="126" x2="126" y1="225.8516" y2="238.6563"/><rect fill="#F0E68C" height="12.8047" style="stroke:none;stroke-width:1.0;" width="124" x="2" y="242.6563"/><line style="stroke:#8B0000;stroke-width:1.0;" x1="2" x2="126" y1="242.6563" y2="242.6563"/><line style="stroke:#8B0000;stroke-width:1.0;" x1="2" x2="126" y1="255.4609" y2="255.4609"/><line style="stroke:#8B0000;stroke-width:1.0;" x1="2" x2="2" y1="242.6563" y2="255.4609"/><line style="stroke:#8B0000;stroke-width:1.0;" x1="126" x2="126" y1="242.6563" y2="255.4609"/><rect fill="#E2E2F0" height="12.8047" style="stroke:none;stroke-width:1.0;" width="124" x="2" y="259.4609"/><line style="stroke:#181818;stroke-width:1.0;" x1="2" x2="126" y1="259.4609" y2="259.4609"/><line style="stroke:#181818;stroke-width:1.0;" x1="2" x2="126" y1="272.2656" y2="272.2656"/><line style="stroke:#181818;stroke-width:1.0;" x1="2" x2="2" y1="259.4609" y2="272.2656"/><line style="stroke:#181818;stroke-width:1.0;" x1="126" x2="126" y1="259.4609" y2="272.2656"/><text fill="#000000" font-family="sans-serif" font-size="11" lengthAdjust="spacing" textLength="134.8145" x="130" y="51.2104">Requirements elicitation</text><text fill="#000000" font-family="sans-serif" font-size="11" lengthAdjust="spacing" textLength="186.8066" x="18" y="68.0151">Review Assessment requirements</text><text fill="#000000" font-family="sans-serif" font-size="11" lengthAdjust="spacing" textLength="134.6104" x="18" y="84.8198">Plan interview questions</text><text fill="#000000" font-family="sans-serif" font-size="11" lengthAdjust="spacing" textLength="84.8579" x="34" y="101.6245">Interview client</text><text fill="#000000" font-family="sans-serif" font-size="11" lengthAdjust="spacing" textLength="117.3262" x="66" y="118.4292">Review requirements</text><text fill="#000000" font-family="sans-serif" font-size="11" lengthAdjust="spacing" textLength="328.0771" x="130" y="135.2339">Document User and System requirements {Rosie} {Abbie}</text><text fill="#000000" font-family="sans-serif" font-size="11" lengthAdjust="spacing" textLength="243.0474" x="130" y="152.0386">Architecture {James G} {James S} {Artem}</text><text fill="#000000" font-family="sans-serif" font-size="11" lengthAdjust="spacing" textLength="219.0708" x="130" y="168.8433">Method selection and planning {Adam}</text><text fill="#000000" font-family="sans-serif" font-size="11" lengthAdjust="spacing" textLength="252.8604" x="82" y="185.6479">Create Gantt chart for overall project timeline</text><text fill="#000000" font-family="sans-serif" font-size="11" lengthAdjust="spacing" textLength="141.7861" x="130" y="202.4526">Research tools for project</text><text fill="#000000" font-family="sans-serif" font-size="11" lengthAdjust="spacing" textLength="216.4712" x="130" y="219.2573">Risk assessment and mitigation {Alex}</text><text fill="#000000" font-family="sans-serif" font-size="11" lengthAdjust="spacing" textLength="116.7515" x="130" y="236.062">Identify starting risks</text><text fill="#000000" font-family="sans-serif" font-size="11" lengthAdjust="spacing" textLength="44.4941" x="6" y="252.8667">Website</text><text fill="#000000" font-family="sans-serif" font-size="11" lengthAdjust="spacing" textLength="252.3286" x="130" y="269.6714">Update website with ongoing project changes</text><text fill="#000000" font-family="sans-serif" font-size="10" lengthAdjust="spacing" textLength="14.7461" x="0.627" y="283.5479">Mo</text><text fill="#000000" font-family="sans-serif" font-size="10" lengthAdjust="spacing" textLength="12.4463" x="17.7769" y="283.5479">Tu</text><text fill="#000000" font-family="sans-serif" font-size="10" lengthAdjust="spacing" textLength="16.04" x="32" y="283.5479">We</text><text fill="#000000" font-family="sans-serif" font-size="10" lengthAdjust="spacing" textLength="12.4463" x="49.7769" y="283.5479">Th</text><text fill="#000000" font-family="sans-serif" font-size="10" lengthAdjust="spacing" textLength="9.8633" x="67.0684" y="283.5479">Fr</text><text fill="#000000" font-family="sans-serif" font-size="10" lengthAdjust="spacing" textLength="12.4756" x="81.7622" y="283.5479">Sa</text><text fill="#000000" font-family="sans-serif" font-size="10" lengthAdjust="spacing" textLength="12.6855" x="97.6572" y="283.5479">Su</text><text fill="#000000" font-family="sans-serif" font-size="10" lengthAdjust="spacing" textLength="14.7461" x="112.627" y="283.5479">Mo</text><text fill="#000000" font-family="sans-serif" font-size="10" lengthAdjust="spacing" textLength="6.3623" x="4.8188" y="297.5479">7</text><text fill="#000000" font-family="sans-serif" font-size="10" lengthAdjust="spacing" textLength="6.3623" x="20.8188" y="297.5479">8</text><text fill="#000000" font-family="sans-serif" font-size="10" lengthAdjust="spacing" textLength="6.3623" x="36.8188" y="297.5479">9</text><text fill="#000000" font-family="sans-serif" font-size="10" lengthAdjust="spacing" textLength="12.7246" x="49.6377" y="297.5479">10</text><text fill="#000000" font-family="sans-serif" font-size="10" lengthAdjust="spacing" textLength="12.7246" x="65.6377" y="297.5479">11</text><text fill="#000000" font-family="sans-serif" font-size="10" lengthAdjust="spacing" textLength="12.7246" x="81.6377" y="297.5479">12</text><text fill="#000000" font-family="sans-serif" font-size="10" lengthAdjust="spacing" textLength="12.7246" x="97.6377" y="297.5479">13</text><text fill="#000000" font-family="sans-serif" font-size="10" lengthAdjust="spacing" textLength="12.7246" x="113.6377" y="297.5479">14</text><text fill="#000000" font-family="sans-serif" font-size="12" font-weight="bold" lengthAdjust="spacing" textLength="91.5176" x="18.2412" y="312.4043">October 2024</text><!--SRC=[dPPDSzem48Rl-XLxQp8TKaXeayafDBIPq33DG4aFJ0_2tc0L8n59XZ2P_FUkP1C43byzmTZlFkzgTxNZAsEvjaCkhMM9Y14q6gCo7Q61HwNiG3spVWUVCg5nZD8Qm5H4md8hbFn3Ql_6m5aLOZutm6KCma2aKgMH_ahuaV2H-DJaUjJ1sB6c0cVGC8QC7771yFI0UE61h7-VSaaSYze7FcLed7SeFSsbDa49_TitQPGAOWQwcjCLiYAF3UOhnAQACfzfpw3s9-pEZSNnMh2IyD9HHk0hl3G60_UxTCxBmrY_eQD4M8nifZ6FQV4nAMvU5_-wBbuJFuW_tREyhDz6cwWO3ARaGNNo8HEgeHHoc1isOXwozsxTjKPk4MxSi42KqDpGY6XGKzGyJM6YrL_o12l6D2CIWtAUX-Nie45ELG2hL6eyeWWjH_Gxmeo0BuV59JaMLWoB0VJdIV7vVyvp6nDHFCx1tm4g3sXo2yUWLb-qxJSE3BKjU5S_szEcDubTsMOv0MR29fJsK3d3HSsecdA8eNNzSs5zNqXyacuIJkkLMhLIFMVRBcQXRdwiRbEXZ9V4MdttxLp5RjUkm2dTBJSvn6vMbO3bgrw0k8NDd0_6aTZx6o00bEYBm3ttGO1wp-f0sdghrZV9dcwhGMNeZlMnTF6zsg4kZTV16oGSZ8E3L-rhRElc2UftgD5oe3RZopTjns9RkMaxj2Nunissrh-Dkl9Wl2t0CB6tXwKC3bfw8VAWm5AQL_Ga_vXXxlxRNliEg6t6pMRjn2bFBWPe-TbHJuwacadQs-E9ID5tyvWTtTpVGVxz0x4mLej1vcfyp5fyog6JIQUxX9yJbAtcZyK3-2QdGYlfkiDQ3-sbu4kzybLOwD8ceTlzq6PDVEHPQYaYKZ4TwX9wlxvNBjWT7IdZGsAZPDUAk7fExxh_0000]--></g></svg>