<svg xmlns="http://www.w3.org/2000/svg" xmlns:xlink="http://www.w3.org/1999/xlink" contentStyleType="text/css" height="383px" preserveAspectRatio="none" style="width:397px;height:383px;background:#FFFFFF;" version="1.1" viewBox="0 0 397 383" width="397px" zoomAndPan="magnify"><defs/><g><text fill="#000000" font-family="sans-serif" font-size="10" lengthAdjust="spacing" textLength="14.7461" x="0.627" y="23.2822">Mo</text><text fill="#000000" font-family="sans-serif" font-size="10" lengthAdjust="spacing" textLength="12.4463" x="17.7769" y="23.2822">Tu</text><text fill="#000000" font-family="sans-serif" font-size="10" lengthAdjust="spacing" textLength="16.04" x="32" y="23.2822">We</text><text fill="#000000" font-family="sans-serif" font-size="10" lengthAdjust="spacing" textLength="12.4463" x="49.7769" y="23.2822">Th</text><text fill="#000000" font-family="sans-serif" font-size="10" lengthAdjust="spacing" textLength="9.8633" x="67.0684" y="23.2822">Fr</text><text fill="#000000" font-family="sans-serif" font-size="10" lengthAdjust="spacing" textLength="12.4756" x="81.7622" y="23.2822">Sa</text><text fill="#000000" font-family="sans-serif" font-size="10" lengthAdjust="spacing" textLength="12.6855" x="97.6572" y="23.2822">Su</text><text fill="#000000" font-family="sans-serif" font-size="10" lengthAdjust="spacing" textLength="14.7461" x="112.627" y="23.2822">Mo</text><text fill="#000000" font-family="sans-serif" font-size="10" lengthAdjust="spacing" textLength="12.7246" x="1.6377" y="35.2822">14</text><text fill="#000000" font-family="sans-serif" font-size="10" lengthAdjust="spacing" textLength="12.7246" x="17.6377" y="35.2822">15</text><text fill="#000000" font-family="sans-serif" font-size="10" lengthAdjust="spacing" textLength="12.7246" x="33.6377" y="35.2822">16</text><text fill="#000000" font-family="sans-serif" font-size="10" lengthAdjust="spacing" textLength="12.7246" x="49.6377" y="35.2822">17</text><text fill="#000000" font-family="sans-serif" font-size="10" lengthAdjust="spacing" textLength="12.7246" x="65.6377" y="35.2822">18</text><text fill="#000000" font-family="sans-serif" font-size="10" lengthAdjust="spacing" textLength="12.7246" x="81.6377" y="35.2822">19</text><text fill="#000000" font-family="sans-serif" font-size="10" lengthAdjust="spacing" textLength="12.7246" x="97.6377" y="35.2822">20</text><text fill="#000000" font-family="sans-serif" font-size="10" lengthAdjust="spacing" textLength="12.7246" x="113.6377" y="35.2822">21</text><text fill="#000000" font-family="sans-serif" font-size="12" font-weight="bold" lengthAdjust="spacing" textLength="91.5176" x="18.2412" y="11.1387">October 2024</text><line style="stroke:#C0C0C0;stroke-width:1.0;" x1="0" x2="0" y1="39" y2="341.4844"/><line style="stroke:#C0C0C0;stroke-width:1.0;" x1="16" x2="16" y1="39" y2="341.4844"/><line style="stroke:#C0C0C0;stroke-width:1.0;" x1="32" x2="32" y1="39" y2="341.4844"/><line style="stroke:#C0C0C0;stroke-width:1.0;" x1="48" x2="48" y1="39" y2="341.4844"/><line style="stroke:#C0C0C0;stroke-width:1.0;" x1="64" x2="64" y1="39" y2="341.4844"/><line style="stroke:#C0C0C0;stroke-width:1.0;" x1="80" x2="80" y1="39" y2="341.4844"/><line style="stroke:#C0C0C0;stroke-width:1.0;" x1="96" x2="96" y1="39" y2="341.4844"/><line style="stroke:#C0C0C0;stroke-width:1.0;" x1="112" x2="112" y1="39" y2="341.4844"/><line style="stroke:#C0C0C0;stroke-width:1.0;" x1="128" x2="128" y1="39" y2="341.4844"/><line style="stroke:#C0C0C0;stroke-width:1.0;" x1="0" x2="128" y1="39" y2="39"/><line style="stroke:#C0C0C0;stroke-width:1.0;" x1="0" x2="128" y1="341.4844" y2="341.4844"/><line style="stroke:#181818;stroke-width:1.5;" x1="55" x2="55" y1="70.6094" y2="81.0117"/><line style="stroke:#181818;stroke-width:1.5;" x1="55" x2="63" y1="81.0117" y2="81.0117"/><polygon fill="#181818" points="59,77.0117,59,81.0117,59,85.0117,63,81.0117" style="stroke:#181818;stroke-width:1.5;"/><line style="stroke:#181818;stroke-width:1.5;" x1="55" x2="55" y1="238.6563" y2="249.0586"/><line style="stroke:#181818;stroke-width:1.5;" x1="55" x2="63" y1="249.0586" y2="249.0586"/><polygon fill="#181818" points="59,245.0586,59,249.0586,59,253.0586,63,249.0586" style="stroke:#181818;stroke-width:1.5;"/><line style="stroke:#181818;stroke-width:1.5;" x1="55" x2="55" y1="289.0703" y2="299.4727"/><line style="stroke:#181818;stroke-width:1.5;" x1="55" x2="63" y1="299.4727" y2="299.4727"/><polygon fill="#181818" points="59,295.4727,59,299.4727,59,303.4727,63,299.4727" style="stroke:#181818;stroke-width:1.5;"/><rect fill="#F0E68C" height="12.8047" style="stroke:none;stroke-width:1.0;" width="124" x="2" y="41"/><line style="stroke:#8B0000;stroke-width:1.0;" x1="2" x2="126" y1="41" y2="41"/><line style="stroke:#8B0000;stroke-width:1.0;" x1="2" x2="126" y1="53.8047" y2="53.8047"/><line style="stroke:#8B0000;stroke-width:1.0;" x1="2" x2="2" y1="41" y2="53.8047"/><line style="stroke:#8B0000;stroke-width:1.0;" x1="126" x2="126" y1="41" y2="53.8047"/><rect fill="#F0E68C" height="12.8047" style="stroke:none;stroke-width:1.0;" width="60" x="2" y="57.8047"/><line style="stroke:#8B0000;stroke-width:1.0;" x1="2" x2="62" y1="57.8047" y2="57.8047"/><line style="stroke:#8B0000;stroke-width:1.0;" x1="2" x2="62" y1="70.6094" y2="70.6094"/><line style="stroke:#8B0000;stroke-width:1.0;" x1="2" x2="2" y1="57.8047" y2="70.6094"/><line style="stroke:#8B0000;stroke-width:1.0;" x1="62" x2="62" y1="57.8047" y2="70.6094"/><rect fill="#F0E68C" height="12.8047" style="stroke:none;stroke-width:1.0;" width="60" x="66" y="74.6094"/><line style="stroke:#8B0000;stroke-width:1.0;" x1="66" x2="126" y1="74.6094" y2="74.6094"/><line style="stroke:#8B0000;stroke-width:1.0;" x1="66" x2="126" y1="87.4141" y2="87.4141"/><line style="stroke:#8B0000;stroke-width:1.0;" x1="66" x2="66" y1="74.6094" y2="87.4141"/><line style="stroke:#8B0000;stroke-width:1.0;" x1="126" x2="126" y1="74.6094" y2="87.4141"/><rect fill="#E2E2F0" height="12.8047" style="stroke:none;stroke-width:1.0;" width="60" x="66" y="91.4141"/><line style="stroke:#181818;stroke-width:1.0;" x1="66" x2="126" y1="91.4141" y2="91.4141"/><line style="stroke:#181818;stroke-width:1.0;" x1="66" x2="126" y1="104.2188" y2="104.2188"/><line style="stroke:#181818;stroke-width:1.0;" x1="66" x2="66" y1="91.4141" y2="104.2188"/><line style="stroke:#181818;stroke-width:1.0;" x1="126" x2="126" y1="91.4141" y2="104.2188"/><rect fill="#E2E2F0" height="12.8047" style="stroke:none;stroke-width:1.0;" width="60" x="66" y="108.2188"/><line style="stroke:#181818;stroke-width:1.0;" x1="66" x2="126" y1="108.2188" y2="108.2188"/><line style="stroke:#181818;stroke-width:1.0;" x1="66" x2="126" y1="121.0234" y2="121.0234"/><line style="stroke:#181818;stroke-width:1.0;" x1="66" x2="66" y1="108.2188" y2="121.0234"/><line style="stroke:#181818;stroke-width:1.0;" x1="126" x2="126" y1="108.2188" y2="121.0234"/><rect fill="#E2E2F0" height="12.8047" style="stroke:none;stroke-width:1.0;" width="60" x="66" y="125.0234"/><line style="stroke:#181818;stroke-width:1.0;" x1="66" x2="126" y1="125.0234" y2="125.0234"/><line style="stroke:#181818;stroke-width:1.0;" x1="66" x2="126" y1="137.8281" y2="137.8281"/><line style="stroke:#181818;stroke-width:1.0;" x1="66" x2="66" y1="125.0234" y2="137.8281"/><line style="stroke:#181818;stroke-width:1.0;" x1="126" x2="126" y1="125.0234" y2="137.8281"/><rect fill="#E2E2F0" height="12.8047" style="stroke:none;stroke-width:1.0;" width="60" x="66" y="141.8281"/><line style="stroke:#181818;stroke-width:1.0;" x1="66" x2="126" y1="141.8281" y2="141.8281"/><line style="stroke:#181818;stroke-width:1.0;" x1="66" x2="126" y1="154.6328" y2="154.6328"/><line style="stroke:#181818;stroke-width:1.0;" x1="66" x2="66" y1="141.8281" y2="154.6328"/><line style="stroke:#181818;stroke-width:1.0;" x1="126" x2="126" y1="141.8281" y2="154.6328"/><rect fill="#E2E2F0" height="12.8047" style="stroke:none;stroke-width:1.0;" width="60" x="66" y="158.6328"/><line style="stroke:#181818;stroke-width:1.0;" x1="66" x2="126" y1="158.6328" y2="158.6328"/><line style="stroke:#181818;stroke-width:1.0;" x1="66" x2="126" y1="171.4375" y2="171.4375"/><line style="stroke:#181818;stroke-width:1.0;" x1="66" x2="66" y1="158.6328" y2="171.4375"/><line style="stroke:#181818;stroke-width:1.0;" x1="126" x2="126" y1="158.6328" y2="171.4375"/><rect fill="#E2E2F0" height="12.8047" style="stroke:none;stroke-width:1.0;" width="60" x="66" y="175.4375"/><line style="stroke:#181818;stroke-width:1.0;" x1="66" x2="126" y1="175.4375" y2="175.4375"/><line style="stroke:#181818;stroke-width:1.0;" x1="66" x2="126" y1="188.2422" y2="188.2422"/><line style="stroke:#181818;stroke-width:1.0;" x1="66" x2="66" y1="175.4375" y2="188.2422"/><line style="stroke:#181818;stroke-width:1.0;" x1="126" x2="126" y1="175.4375" y2="188.2422"/><rect fill="#E2E2F0" height="12.8047" style="stroke:none;stroke-width:1.0;" width="60" x="66" y="192.2422"/><line style="stroke:#181818;stroke-width:1.0;" x1="66" x2="126" y1="192.2422" y2="192.2422"/><line style="stroke:#181818;stroke-width:1.0;" x1="66" x2="126" y1="205.0469" y2="205.0469"/><line style="stroke:#181818;stroke-width:1.0;" x1="66" x2="66" y1="192.2422" y2="205.0469"/><line style="stroke:#181818;stroke-width:1.0;" x1="126" x2="126" y1="192.2422" y2="205.0469"/><rect fill="#F0E68C" height="12.8047" style="stroke:none;stroke-width:1.0;" width="124" x="2" y="209.0469"/><line style="stroke:#8B0000;stroke-width:1.0;" x1="2" x2="126" y1="209.0469" y2="209.0469"/><line style="stroke:#8B0000;stroke-width:1.0;" x1="2" x2="126" y1="221.8516" y2="221.8516"/><line style="stroke:#8B0000;stroke-width:1.0;" x1="2" x2="2" y1="209.0469" y2="221.8516"/><line style="stroke:#8B0000;stroke-width:1.0;" x1="126" x2="126" y1="209.0469" y2="221.8516"/><rect fill="#E2E2F0" height="12.8047" style="stroke:none;stroke-width:1.0;" width="60" x="2" y="225.8516"/><line style="stroke:#181818;stroke-width:1.0;" x1="2" x2="62" y1="225.8516" y2="225.8516"/><line style="stroke:#181818;stroke-width:1.0;" x1="2" x2="62" y1="238.6563" y2="238.6563"/><line style="stroke:#181818;stroke-width:1.0;" x1="2" x2="2" y1="225.8516" y2="238.6563"/><line style="stroke:#181818;stroke-width:1.0;" x1="62" x2="62" y1="225.8516" y2="238.6563"/><rect fill="#E2E2F0" height="12.8047" style="stroke:none;stroke-width:1.0;" width="60" x="66" y="242.6563"/><line style="stroke:#181818;stroke-width:1.0;" x1="66" x2="126" y1="242.6563" y2="242.6563"/><line style="stroke:#181818;stroke-width:1.0;" x1="66" x2="126" y1="255.4609" y2="255.4609"/><line style="stroke:#181818;stroke-width:1.0;" x1="66" x2="66" y1="242.6563" y2="255.4609"/><line style="stroke:#181818;stroke-width:1.0;" x1="126" x2="126" y1="242.6563" y2="255.4609"/><rect fill="#F0E68C" height="12.8047" style="stroke:none;stroke-width:1.0;" width="124" x="2" y="259.4609"/><line style="stroke:#8B0000;stroke-width:1.0;" x1="2" x2="126" y1="259.4609" y2="259.4609"/><line style="stroke:#8B0000;stroke-width:1.0;" x1="2" x2="126" y1="272.2656" y2="272.2656"/><line style="stroke:#8B0000;stroke-width:1.0;" x1="2" x2="2" y1="259.4609" y2="272.2656"/><line style="stroke:#8B0000;stroke-width:1.0;" x1="126" x2="126" y1="259.4609" y2="272.2656"/><rect fill="#E2E2F0" height="12.8047" style="stroke:none;stroke-width:1.0;" width="60" x="2" y="276.2656"/><line style="stroke:#181818;stroke-width:1.0;" x1="2" x2="62" y1="276.2656" y2="276.2656"/><line style="stroke:#181818;stroke-width:1.0;" x1="2" x2="62" y1="289.0703" y2="289.0703"/><line style="stroke:#181818;stroke-width:1.0;" x1="2" x2="2" y1="276.2656" y2="289.0703"/><line style="stroke:#181818;stroke-width:1.0;" x1="62" x2="62" y1="276.2656" y2="289.0703"/><rect fill="#E2E2F0" height="12.8047" style="stroke:none;stroke-width:1.0;" width="60" x="66" y="293.0703"/><line style="stroke:#181818;stroke-width:1.0;" x1="66" x2="126" y1="293.0703" y2="293.0703"/><line style="stroke:#181818;stroke-width:1.0;" x1="66" x2="126" y1="305.875" y2="305.875"/><line style="stroke:#181818;stroke-width:1.0;" x1="66" x2="66" y1="293.0703" y2="305.875"/><line style="stroke:#181818;stroke-width:1.0;" x1="126" x2="126" y1="293.0703" y2="305.875"/><rect fill="#F0E68C" height="12.8047" style="stroke:none;stroke-width:1.0;" width="124" x="2" y="309.875"/><line style="stroke:#8B0000;stroke-width:1.0;" x1="2" x2="126" y1="309.875" y2="309.875"/><line style="stroke:#8B0000;stroke-width:1.0;" x1="2" x2="126" y1="322.6797" y2="322.6797"/><line style="stroke:#8B0000;stroke-width:1.0;" x1="2" x2="2" y1="309.875" y2="322.6797"/><line style="stroke:#8B0000;stroke-width:1.0;" x1="126" x2="126" y1="309.875" y2="322.6797"/><rect fill="#E2E2F0" height="12.8047" style="stroke:none;stroke-width:1.0;" width="124" x="2" y="326.6797"/><line style="stroke:#181818;stroke-width:1.0;" x1="2" x2="126" y1="326.6797" y2="326.6797"/><line style="stroke:#181818;stroke-width:1.0;" x1="2" x2="126" y1="339.4844" y2="339.4844"/><line style="stroke:#181818;stroke-width:1.0;" x1="2" x2="2" y1="326.6797" y2="339.4844"/><line style="stroke:#181818;stroke-width:1.0;" x1="126" x2="126" y1="326.6797" y2="339.4844"/><text fill="#000000" font-family="sans-serif" font-size="11" lengthAdjust="spacing" textLength="243.0474" x="130" y="51.2104">Architecture {James G} {James S} {Artem}</text><text fill="#000000" font-family="sans-serif" font-size="11" lengthAdjust="spacing" textLength="182.2358" x="66" y="68.0151">Requirements elicitation {Rosie}</text><text fill="#000000" font-family="sans-serif" font-size="11" lengthAdjust="spacing" textLength="87.3447" x="130" y="84.8198">Implementation</text><text fill="#000000" font-family="sans-serif" font-size="11" lengthAdjust="spacing" textLength="74.7764" x="130" y="101.6245">Add buildings</text><text fill="#000000" font-family="sans-serif" font-size="11" lengthAdjust="spacing" textLength="54.3608" x="130" y="118.4292">Add timer</text><text fill="#000000" font-family="sans-serif" font-size="11" lengthAdjust="spacing" textLength="249.5356" x="130" y="135.2339">Design a map (river, hills, unplaceable spots)</text><text fill="#000000" font-family="sans-serif" font-size="11" lengthAdjust="spacing" textLength="142.7905" x="130" y="152.0386">Add textures for buildings</text><text fill="#000000" font-family="sans-serif" font-size="11" lengthAdjust="spacing" textLength="103.3237" x="130" y="168.8433">Add a map texture</text><text fill="#000000" font-family="sans-serif" font-size="11" lengthAdjust="spacing" textLength="179.3462" x="130" y="185.6479">Add sounds for placing buildings</text><text fill="#000000" font-family="sans-serif" font-size="11" lengthAdjust="spacing" textLength="57.5083" x="130" y="202.4526">Add music</text><text fill="#000000" font-family="sans-serif" font-size="11" lengthAdjust="spacing" textLength="219.0708" x="130" y="219.2573">Method selection and planning {Adam}</text><text fill="#000000" font-family="sans-serif" font-size="11" lengthAdjust="spacing" textLength="141.7861" x="66" y="236.062">Research tools for project</text><text fill="#000000" font-family="sans-serif" font-size="11" lengthAdjust="spacing" textLength="159.9243" x="130" y="252.8667">Document planning methods</text><text fill="#000000" font-family="sans-serif" font-size="11" lengthAdjust="spacing" textLength="265.2783" x="130" y="269.6714">Risk assessment and mitigation {Alex} {Abbie}</text><text fill="#000000" font-family="sans-serif" font-size="11" lengthAdjust="spacing" textLength="106.7988" x="66" y="286.4761">Plan format of risks</text><text fill="#000000" font-family="sans-serif" font-size="11" lengthAdjust="spacing" textLength="116.6763" x="130" y="303.2808">Maintain risk register</text><text fill="#000000" font-family="sans-serif" font-size="11" lengthAdjust="spacing" textLength="44.4941" x="6" y="320.0854">Website</text><text fill="#000000" font-family="sans-serif" font-size="11" lengthAdjust="spacing" textLength="252.3286" x="130" y="336.8901">Update website with ongoing project changes</text><text fill="#000000" font-family="sans-serif" font-size="10" lengthAdjust="spacing" textLength="14.7461" x="0.627" y="350.7666">Mo</text><text fill="#000000" font-family="sans-serif" font-size="10" lengthAdjust="spacing" textLength="12.4463" x="17.7769" y="350.7666">Tu</text><text fill="#000000" font-family="sans-serif" font-size="10" lengthAdjust="spacing" textLength="16.04" x="32" y="350.7666">We</text><text fill="#000000" font-family="sans-serif" font-size="10" lengthAdjust="spacing" textLength="12.4463" x="49.7769" y="350.7666">Th</text><text fill="#000000" font-family="sans-serif" font-size="10" lengthAdjust="spacing" textLength="9.8633" x="67.0684" y="350.7666">Fr</text><text fill="#000000" font-family="sans-serif" font-size="10" lengthAdjust="spacing" textLength="12.4756" x="81.7622" y="350.7666">Sa</text><text fill="#000000" font-family="sans-serif" font-size="10" lengthAdjust="spacing" textLength="12.6855" x="97.6572" y="350.7666">Su</text><text fill="#000000" font-family="sans-serif" font-size="10" lengthAdjust="spacing" textLength="14.7461" x="112.627" y="350.7666">Mo</text><text fill="#000000" font-family="sans-serif" font-size="10" lengthAdjust="spacing" textLength="12.7246" x="1.6377" y="364.7666">14</text><text fill="#000000" font-family="sans-serif" font-size="10" lengthAdjust="spacing" textLength="12.7246" x="17.6377" y="364.7666">15</text><text fill="#000000" font-family="sans-serif" font-size="10" lengthAdjust="spacing" textLength="12.7246" x="33.6377" y="364.7666">16</text><text fill="#000000" font-family="sans-serif" font-size="10" lengthAdjust="spacing" textLength="12.7246" x="49.6377" y="364.7666">17</text><text fill="#000000" font-family="sans-serif" font-size="10" lengthAdjust="spacing" textLength="12.7246" x="65.6377" y="364.7666">18</text><text fill="#000000" font-family="sans-serif" font-size="10" lengthAdjust="spacing" textLength="12.7246" x="81.6377" y="364.7666">19</text><text fill="#000000" font-family="sans-serif" font-size="10" lengthAdjust="spacing" textLength="12.7246" x="97.6377" y="364.7666">20</text><text fill="#000000" font-family="sans-serif" font-size="10" lengthAdjust="spacing" textLength="12.7246" x="113.6377" y="364.7666">21</text><text fill="#000000" font-family="sans-serif" font-size="12" font-weight="bold" lengthAdjust="spacing" textLength="91.5176" x="18.2412" y="379.623">October 2024</text><!--SRC=[bLPDJzj04BtxLyoje19A8BI84sdJeWQYej3GGyHXRG_sDFQkkxlcGuZ_tjdO0IUsa-2JvPrvytRclP7FZ1NQHa9QwyKK8cWqHkKwG0DtIbbVFNhUjA-3c2m6DjTu2qh2yr2a777-idYxvhU-jfY-CCA_d1W63WyW54y6X0o130GgKHhvLS95B6RqQI3qR8oXDnqN6IbAQm0J2iWAIqeMfSRA45PWUzkXyZFzcMR97BQ4UyKusfPQFmp1poa9IKRcTfL4SMufHTrmDa13aGG1gSXWHzCzwZs8AKdC7kGoIqI0mayGJAQisMq3nqVNTJSDlP59KQfCQOdXwSgmW7CK66qZR9eR2kfdhiCZjB5YK4nO7TpZUKSPLqh6A-RN3qLL5TtZhLLXKB3mm2gLb8Ir-ijrcdgjWjmD-hKsf7DcrIjzAMF7P6OWZ66bprCSavGiHHNHzHDyT9Bs_INjRQsRAwRXAAV2Whe3pIMRkZiInEBaT1V0nn4PkwIbxgBNqp_e6_PW5UHeIpAJB1GMuQ50W0UoCLyoKgvDPKiXY8MCS8dZSLdwgWoPhmfdwyDUftlGwVQyTTOjemSV3xpQ1YdFk3SLi9KOT2fT71zswsP-0sbdyS4ud7fk3Np5vmq4JvRCtXpmNiUlATDY-_QC5U-t1wvV0ErvvHPe3DYu29edlY6fDgLrAw6kpdLBOKayhQ0B-Qm1gdFSi5qgljWOMmDlNYjLoBQDKhbm8yZYgctvgrIg6wbQ__LZZVkxjb0Lybs9DPvd_ANul_7SnUraT0diI-FarjrtaVidFbfnj3EHCwaU92_ID2DsgRFwhhTpVdK9nIyHXDmCJNxkfhFh3SMzW74kNTmf_CfG3WSNYm_mNTwJLjBDrHlUZDu2FlSwNyd2DMgc0JSZRu1t8ayiPmJAkV0K9hz_T4wyIxvIBYB6HkbzOzTQ_SHdr_y1]--></g></svg>