<svg xmlns="http://www.w3.org/2000/svg" xmlns:xlink="http://www.w3.org/1999/xlink" contentStyleType="text/css" height="415px" preserveAspectRatio="none" style="width:496px;height:415px;background:#FFFFFF;" version="1.1" viewBox="0 0 496 415" width="496px" zoomAndPan="magnify"><defs/><g><rect fill="#CD5C5C" height="319.2891" style="stroke:none;stroke-width:1.0;" width="48" x="192" y="55"/><text fill="#000000" font-family="sans-serif" font-size="10" lengthAdjust="spacing" textLength="14.7461" x="0.627" y="23.2822">Mo</text><text fill="#000000" font-family="sans-serif" font-size="10" lengthAdjust="spacing" textLength="12.4463" x="17.7769" y="23.2822">Tu</text><text fill="#000000" font-family="sans-serif" font-size="10" lengthAdjust="spacing" textLength="16.04" x="32" y="23.2822">We</text><text fill="#000000" font-family="sans-serif" font-size="10" lengthAdjust="spacing" textLength="12.4463" x="49.7769" y="23.2822">Th</text><text fill="#000000" font-family="sans-serif" font-size="10" lengthAdjust="spacing" textLength="9.8633" x="67.0684" y="23.2822">Fr</text><text fill="#000000" font-family="sans-serif" font-size="10" lengthAdjust="spacing" textLength="12.4756" x="81.7622" y="23.2822">Sa</text><text fill="#000000" font-family="sans-serif" font-size="10" lengthAdjust="spacing" textLength="12.6855" x="97.6572" y="23.2822">Su</text><text fill="#000000" font-family="sans-serif" font-size="10" lengthAdjust="spacing" textLength="14.7461" x="112.627" y="23.2822">Mo</text><text fill="#000000" font-family="sans-serif" font-size="10" lengthAdjust="spacing" textLength="12.4463" x="129.7769" y="23.2822">Tu</text><text fill="#000000" font-family="sans-serif" font-size="10" lengthAdjust="spacing" textLength="16.04" x="144" y="23.2822">We</text><text fill="#000000" font-family="sans-serif" font-size="10" lengthAdjust="spacing" textLength="12.4463" x="161.7769" y="23.2822">Th</text><text fill="#000000" font-family="sans-serif" font-size="10" lengthAdjust="spacing" textLength="9.8633" x="179.0684" y="23.2822">Fr</text><text fill="#000000" font-family="sans-serif" font-size="10" lengthAdjust="spacing" textLength="12.4756" x="193.7622" y="23.2822">Sa</text><text fill="#000000" font-family="sans-serif" font-size="10" lengthAdjust="spacing" textLength="12.6855" x="209.6572" y="23.2822">Su</text><text fill="#000000" font-family="sans-serif" font-size="10" lengthAdjust="spacing" textLength="14.7461" x="224.627" y="23.2822">Mo</text><text fill="#000000" font-family="sans-serif" font-size="10" lengthAdjust="spacing" textLength="12.7246" x="1.6377" y="35.2822">28</text><text fill="#000000" font-family="sans-serif" font-size="10" lengthAdjust="spacing" textLength="12.7246" x="17.6377" y="35.2822">29</text><text fill="#000000" font-family="sans-serif" font-size="10" lengthAdjust="spacing" textLength="12.7246" x="33.6377" y="35.2822">30</text><text fill="#000000" font-family="sans-serif" font-size="10" lengthAdjust="spacing" textLength="12.7246" x="49.6377" y="35.2822">31</text><text fill="#000000" font-family="sans-serif" font-size="10" lengthAdjust="spacing" textLength="6.3623" x="68.8188" y="35.2822">1</text><text fill="#000000" font-family="sans-serif" font-size="10" lengthAdjust="spacing" textLength="6.3623" x="84.8188" y="35.2822">2</text><text fill="#000000" font-family="sans-serif" font-size="10" lengthAdjust="spacing" textLength="6.3623" x="100.8188" y="35.2822">3</text><text fill="#000000" font-family="sans-serif" font-size="10" lengthAdjust="spacing" textLength="6.3623" x="116.8188" y="35.2822">4</text><text fill="#000000" font-family="sans-serif" font-size="10" lengthAdjust="spacing" textLength="6.3623" x="132.8188" y="35.2822">5</text><text fill="#000000" font-family="sans-serif" font-size="10" lengthAdjust="spacing" textLength="6.3623" x="148.8188" y="35.2822">6</text><text fill="#000000" font-family="sans-serif" font-size="10" lengthAdjust="spacing" textLength="6.3623" x="164.8188" y="35.2822">7</text><text fill="#000000" font-family="sans-serif" font-size="10" lengthAdjust="spacing" textLength="6.3623" x="180.8188" y="35.2822">8</text><text fill="#000000" font-family="sans-serif" font-size="10" lengthAdjust="spacing" textLength="6.3623" x="196.8188" y="35.2822">9</text><text fill="#000000" font-family="sans-serif" font-size="10" lengthAdjust="spacing" textLength="12.7246" x="209.6377" y="35.2822">10</text><text fill="#000000" font-family="sans-serif" font-size="10" lengthAdjust="spacing" textLength="12.7246" x="225.6377" y="35.2822">11</text><text fill="#000000" font-family="sans-serif" font-size="12" font-weight="bold" lengthAdjust="spacing" textLength="53.9414" x="5.0293" y="11.1387">October</text><text fill="#000000" font-family="sans-serif" font-size="12" font-weight="bold" lengthAdjust="spacing" textLength="106.9746" x="98.5127" y="11.1387">November 2024</text><line style="stroke:#C0C0C0;stroke-width:1.0;" x1="0" x2="0" y1="55" y2="374.2891"/><line style="stroke:#C0C0C0;stroke-width:1.0;" x1="16" x2="16" y1="55" y2="374.2891"/><line style="stroke:#C0C0C0;stroke-width:1.0;" x1="32" x2="32" y1="55" y2="374.2891"/><line style="stroke:#C0C0C0;stroke-width:1.0;" x1="48" x2="48" y1="55" y2="374.2891"/><line style="stroke:#C0C0C0;stroke-width:1.0;" x1="64" x2="64" y1="55" y2="374.2891"/><line style="stroke:#C0C0C0;stroke-width:1.0;" x1="80" x2="80" y1="55" y2="374.2891"/><line style="stroke:#C0C0C0;stroke-width:1.0;" x1="96" x2="96" y1="55" y2="374.2891"/><line style="stroke:#C0C0C0;stroke-width:1.0;" x1="112" x2="112" y1="55" y2="374.2891"/><line style="stroke:#C0C0C0;stroke-width:1.0;" x1="128" x2="128" y1="55" y2="374.2891"/><line style="stroke:#C0C0C0;stroke-width:1.0;" x1="144" x2="144" y1="55" y2="374.2891"/><line style="stroke:#C0C0C0;stroke-width:1.0;" x1="160" x2="160" y1="55" y2="374.2891"/><line style="stroke:#C0C0C0;stroke-width:1.0;" x1="176" x2="176" y1="55" y2="374.2891"/><line style="stroke:#C0C0C0;stroke-width:1.0;" x1="192" x2="192" y1="55" y2="374.2891"/><line style="stroke:#C0C0C0;stroke-width:1.0;" x1="208" x2="208" y1="55" y2="374.2891"/><line style="stroke:#C0C0C0;stroke-width:1.0;" x1="224" x2="224" y1="55" y2="374.2891"/><line style="stroke:#C0C0C0;stroke-width:1.0;" x1="240" x2="240" y1="55" y2="374.2891"/><text fill="#000000" font-family="sans-serif" font-size="12" lengthAdjust="spacing" textLength="99.5742" x="192" y="50.1387">Submission time</text><line style="stroke:#C0C0C0;stroke-width:1.0;" x1="0" x2="240" y1="55" y2="55"/><line style="stroke:#C0C0C0;stroke-width:1.0;" x1="0" x2="240" y1="374.2891" y2="374.2891"/><line style="stroke:#181818;stroke-width:1.5;" x1="55" x2="55" y1="221.0469" y2="231.4492"/><line style="stroke:#181818;stroke-width:1.5;" x1="55" x2="63" y1="231.4492" y2="231.4492"/><polygon fill="#181818" points="59,227.4492,59,231.4492,59,235.4492,63,231.4492" style="stroke:#181818;stroke-width:1.5;"/><line style="stroke:#181818;stroke-width:1.5;" x1="55" x2="55" y1="288.2656" y2="298.668"/><line style="stroke:#181818;stroke-width:1.5;" x1="55" x2="63" y1="298.668" y2="298.668"/><polygon fill="#181818" points="59,294.668,59,298.668,59,302.668,63,298.668" style="stroke:#181818;stroke-width:1.5;"/><rect fill="#F0E68C" height="12.8047" style="stroke:none;stroke-width:1.0;" width="124" x="2" y="57"/><line style="stroke:#8B0000;stroke-width:1.0;" x1="2" x2="126" y1="57" y2="57"/><line style="stroke:#8B0000;stroke-width:1.0;" x1="2" x2="126" y1="69.8047" y2="69.8047"/><line style="stroke:#8B0000;stroke-width:1.0;" x1="2" x2="2" y1="57" y2="69.8047"/><line style="stroke:#8B0000;stroke-width:1.0;" x1="126" x2="126" y1="57" y2="69.8047"/><rect fill="#E2E2F0" height="12.8047" style="stroke:none;stroke-width:1.0;" width="124" x="2" y="73.8047"/><line style="stroke:#181818;stroke-width:1.0;" x1="2" x2="126" y1="73.8047" y2="73.8047"/><line style="stroke:#181818;stroke-width:1.0;" x1="2" x2="126" y1="86.6094" y2="86.6094"/><line style="stroke:#181818;stroke-width:1.0;" x1="2" x2="2" y1="73.8047" y2="86.6094"/><line style="stroke:#181818;stroke-width:1.0;" x1="126" x2="126" y1="73.8047" y2="86.6094"/><rect fill="#F0E68C" height="12.8047" style="stroke:none;stroke-width:1.0;" width="188" x="2" y="90.6094"/><line style="stroke:#8B0000;stroke-width:1.0;" x1="2" x2="190" y1="90.6094" y2="90.6094"/><line style="stroke:#8B0000;stroke-width:1.0;" x1="2" x2="190" y1="103.4141" y2="103.4141"/><line style="stroke:#8B0000;stroke-width:1.0;" x1="2" x2="2" y1="90.6094" y2="103.4141"/><line style="stroke:#8B0000;stroke-width:1.0;" x1="190" x2="190" y1="90.6094" y2="103.4141"/><rect fill="#E2E2F0" height="12.8047" style="stroke:none;stroke-width:1.0;" width="60" x="2" y="107.4141"/><line style="stroke:#181818;stroke-width:1.0;" x1="2" x2="62" y1="107.4141" y2="107.4141"/><line style="stroke:#181818;stroke-width:1.0;" x1="2" x2="62" y1="120.2188" y2="120.2188"/><line style="stroke:#181818;stroke-width:1.0;" x1="2" x2="2" y1="107.4141" y2="120.2188"/><line style="stroke:#181818;stroke-width:1.0;" x1="62" x2="62" y1="107.4141" y2="120.2188"/><rect fill="#E2E2F0" height="12.8047" style="stroke:none;stroke-width:1.0;" width="60" x="2" y="124.2188"/><line style="stroke:#181818;stroke-width:1.0;" x1="2" x2="62" y1="124.2188" y2="124.2188"/><line style="stroke:#181818;stroke-width:1.0;" x1="2" x2="62" y1="137.0234" y2="137.0234"/><line style="stroke:#181818;stroke-width:1.0;" x1="2" x2="2" y1="124.2188" y2="137.0234"/><line style="stroke:#181818;stroke-width:1.0;" x1="62" x2="62" y1="124.2188" y2="137.0234"/><rect fill="#E2E2F0" height="12.8047" style="stroke:none;stroke-width:1.0;" width="60" x="2" y="141.0234"/><line style="stroke:#181818;stroke-width:1.0;" x1="2" x2="62" y1="141.0234" y2="141.0234"/><line style="stroke:#181818;stroke-width:1.0;" x1="2" x2="62" y1="153.8281" y2="153.8281"/><line style="stroke:#181818;stroke-width:1.0;" x1="2" x2="2" y1="141.0234" y2="153.8281"/><line style="stroke:#181818;stroke-width:1.0;" x1="62" x2="62" y1="141.0234" y2="153.8281"/><rect fill="#E2E2F0" height="12.8047" style="stroke:none;stroke-width:1.0;" width="60" x="2" y="157.8281"/><line style="stroke:#181818;stroke-width:1.0;" x1="2" x2="62" y1="157.8281" y2="157.8281"/><line style="stroke:#181818;stroke-width:1.0;" x1="2" x2="62" y1="170.6328" y2="170.6328"/><line style="stroke:#181818;stroke-width:1.0;" x1="2" x2="2" y1="157.8281" y2="170.6328"/><line style="stroke:#181818;stroke-width:1.0;" x1="62" x2="62" y1="157.8281" y2="170.6328"/><rect fill="#E2E2F0" height="12.8047" style="stroke:none;stroke-width:1.0;" width="60" x="2" y="174.6328"/><line style="stroke:#181818;stroke-width:1.0;" x1="2" x2="62" y1="174.6328" y2="174.6328"/><line style="stroke:#181818;stroke-width:1.0;" x1="2" x2="62" y1="187.4375" y2="187.4375"/><line style="stroke:#181818;stroke-width:1.0;" x1="2" x2="2" y1="174.6328" y2="187.4375"/><line style="stroke:#181818;stroke-width:1.0;" x1="62" x2="62" y1="174.6328" y2="187.4375"/><rect fill="#E2E2F0" height="12.8047" style="stroke:none;stroke-width:1.0;" width="60" x="2" y="191.4375"/><line style="stroke:#181818;stroke-width:1.0;" x1="2" x2="62" y1="191.4375" y2="191.4375"/><line style="stroke:#181818;stroke-width:1.0;" x1="2" x2="62" y1="204.2422" y2="204.2422"/><line style="stroke:#181818;stroke-width:1.0;" x1="2" x2="2" y1="191.4375" y2="204.2422"/><line style="stroke:#181818;stroke-width:1.0;" x1="62" x2="62" y1="191.4375" y2="204.2422"/><rect fill="#E2E2F0" height="12.8047" style="stroke:none;stroke-width:1.0;" width="60" x="2" y="208.2422"/><line style="stroke:#181818;stroke-width:1.0;" x1="2" x2="62" y1="208.2422" y2="208.2422"/><line style="stroke:#181818;stroke-width:1.0;" x1="2" x2="62" y1="221.0469" y2="221.0469"/><line style="stroke:#181818;stroke-width:1.0;" x1="2" x2="2" y1="208.2422" y2="221.0469"/><line style="stroke:#181818;stroke-width:1.0;" x1="62" x2="62" y1="208.2422" y2="221.0469"/><rect fill="#E2E2F0" height="12.8047" style="stroke:none;stroke-width:1.0;" width="124" x="66" y="225.0469"/><line style="stroke:#181818;stroke-width:1.0;" x1="66" x2="190" y1="225.0469" y2="225.0469"/><line style="stroke:#181818;stroke-width:1.0;" x1="66" x2="190" y1="237.8516" y2="237.8516"/><line style="stroke:#181818;stroke-width:1.0;" x1="66" x2="66" y1="225.0469" y2="237.8516"/><line style="stroke:#181818;stroke-width:1.0;" x1="190" x2="190" y1="225.0469" y2="237.8516"/><rect fill="#F0E68C" height="12.8047" style="stroke:none;stroke-width:1.0;" width="188" x="2" y="241.8516"/><line style="stroke:#8B0000;stroke-width:1.0;" x1="2" x2="190" y1="241.8516" y2="241.8516"/><line style="stroke:#8B0000;stroke-width:1.0;" x1="2" x2="190" y1="254.6563" y2="254.6563"/><line style="stroke:#8B0000;stroke-width:1.0;" x1="2" x2="2" y1="241.8516" y2="254.6563"/><line style="stroke:#8B0000;stroke-width:1.0;" x1="190" x2="190" y1="241.8516" y2="254.6563"/><rect fill="#E2E2F0" height="12.8047" style="stroke:none;stroke-width:1.0;" width="60" x="2" y="258.6563"/><line style="stroke:#181818;stroke-width:1.0;" x1="2" x2="62" y1="258.6563" y2="258.6563"/><line style="stroke:#181818;stroke-width:1.0;" x1="2" x2="62" y1="271.4609" y2="271.4609"/><line style="stroke:#181818;stroke-width:1.0;" x1="2" x2="2" y1="258.6563" y2="271.4609"/><line style="stroke:#181818;stroke-width:1.0;" x1="62" x2="62" y1="258.6563" y2="271.4609"/><rect fill="#E2E2F0" height="12.8047" style="stroke:none;stroke-width:1.0;" width="60" x="2" y="275.4609"/><line style="stroke:#181818;stroke-width:1.0;" x1="2" x2="62" y1="275.4609" y2="275.4609"/><line style="stroke:#181818;stroke-width:1.0;" x1="2" x2="62" y1="288.2656" y2="288.2656"/><line style="stroke:#181818;stroke-width:1.0;" x1="2" x2="2" y1="275.4609" y2="288.2656"/><line style="stroke:#181818;stroke-width:1.0;" x1="62" x2="62" y1="275.4609" y2="288.2656"/><rect fill="#E2E2F0" height="12.8047" style="stroke:none;stroke-width:1.0;" width="124" x="66" y="292.2656"/><line style="stroke:#181818;stroke-width:1.0;" x1="66" x2="190" y1="292.2656" y2="292.2656"/><line style="stroke:#181818;stroke-width:1.0;" x1="66" x2="190" y1="305.0703" y2="305.0703"/><line style="stroke:#181818;stroke-width:1.0;" x1="66" x2="66" y1="292.2656" y2="305.0703"/><line style="stroke:#181818;stroke-width:1.0;" x1="190" x2="190" y1="292.2656" y2="305.0703"/><rect fill="#F0E68C" height="12.8047" style="stroke:none;stroke-width:1.0;" width="124" x="2" y="309.0703"/><line style="stroke:#8B0000;stroke-width:1.0;" x1="2" x2="126" y1="309.0703" y2="309.0703"/><line style="stroke:#8B0000;stroke-width:1.0;" x1="2" x2="126" y1="321.875" y2="321.875"/><line style="stroke:#8B0000;stroke-width:1.0;" x1="2" x2="2" y1="309.0703" y2="321.875"/><line style="stroke:#8B0000;stroke-width:1.0;" x1="126" x2="126" y1="309.0703" y2="321.875"/><rect fill="#E2E2F0" height="12.8047" style="stroke:none;stroke-width:1.0;" width="124" x="2" y="325.875"/><line style="stroke:#181818;stroke-width:1.0;" x1="2" x2="126" y1="325.875" y2="325.875"/><line style="stroke:#181818;stroke-width:1.0;" x1="2" x2="126" y1="338.6797" y2="338.6797"/><line style="stroke:#181818;stroke-width:1.0;" x1="2" x2="2" y1="325.875" y2="338.6797"/><line style="stroke:#181818;stroke-width:1.0;" x1="126" x2="126" y1="325.875" y2="338.6797"/><rect fill="#F0E68C" height="12.8047" style="stroke:none;stroke-width:1.0;" width="236" x="2" y="342.6797"/><line style="stroke:#8B0000;stroke-width:1.0;" x1="2" x2="238" y1="342.6797" y2="342.6797"/><line style="stroke:#8B0000;stroke-width:1.0;" x1="2" x2="238" y1="355.4844" y2="355.4844"/><line style="stroke:#8B0000;stroke-width:1.0;" x1="2" x2="2" y1="342.6797" y2="355.4844"/><line style="stroke:#8B0000;stroke-width:1.0;" x1="238" x2="238" y1="342.6797" y2="355.4844"/><rect fill="#E2E2F0" height="12.8047" style="stroke:none;stroke-width:1.0;" width="236" x="2" y="359.4844"/><line style="stroke:#181818;stroke-width:1.0;" x1="2" x2="238" y1="359.4844" y2="359.4844"/><line style="stroke:#181818;stroke-width:1.0;" x1="2" x2="238" y1="372.2891" y2="372.2891"/><line style="stroke:#181818;stroke-width:1.0;" x1="2" x2="2" y1="359.4844" y2="372.2891"/><line style="stroke:#181818;stroke-width:1.0;" x1="238" x2="238" y1="359.4844" y2="372.2891"/><text fill="#000000" font-family="sans-serif" font-size="11" lengthAdjust="spacing" textLength="67.8262" x="6" y="67.2104">Architecture</text><text fill="#000000" font-family="sans-serif" font-size="11" lengthAdjust="spacing" textLength="87.0815" x="6" y="84.0151">Finish diagrams</text><text fill="#000000" font-family="sans-serif" font-size="11" lengthAdjust="spacing" textLength="87.3447" x="6" y="100.8198">Implementation</text><text fill="#000000" font-family="sans-serif" font-size="11" lengthAdjust="spacing" textLength="107.0083" x="66" y="117.6245">Add more buildings</text><text fill="#000000" font-family="sans-serif" font-size="11" lengthAdjust="spacing" textLength="54.3608" x="66" y="134.4292">Add timer</text><text fill="#000000" font-family="sans-serif" font-size="11" lengthAdjust="spacing" textLength="249.5356" x="66" y="151.2339">Design a map (river, hills, unplaceable spots)</text><text fill="#000000" font-family="sans-serif" font-size="11" lengthAdjust="spacing" textLength="142.7905" x="66" y="168.0386">Add textures for buildings</text><text fill="#000000" font-family="sans-serif" font-size="11" lengthAdjust="spacing" textLength="103.3237" x="66" y="184.8433">Add a map texture</text><text fill="#000000" font-family="sans-serif" font-size="11" lengthAdjust="spacing" textLength="179.3462" x="66" y="201.6479">Add sounds for placing buildings</text><text fill="#000000" font-family="sans-serif" font-size="11" lengthAdjust="spacing" textLength="57.5083" x="66" y="218.4526">Add music</text><text fill="#000000" font-family="sans-serif" font-size="11" lengthAdjust="spacing" textLength="76.0547" x="70" y="235.2573">Optimisations</text><text fill="#000000" font-family="sans-serif" font-size="11" lengthAdjust="spacing" textLength="169.6138" x="6" y="252.062">Method selection and planning</text><text fill="#000000" font-family="sans-serif" font-size="11" lengthAdjust="spacing" textLength="159.9243" x="66" y="268.8667">Document planning methods</text><text fill="#000000" font-family="sans-serif" font-size="11" lengthAdjust="spacing" textLength="92.2861" x="66" y="285.6714">Finish final plans</text><text fill="#000000" font-family="sans-serif" font-size="11" lengthAdjust="spacing" textLength="152.8721" x="194" y="302.4761">Summarise systematic plan</text><text fill="#000000" font-family="sans-serif" font-size="11" lengthAdjust="spacing" textLength="175.1191" x="130" y="319.2808">Risk assessment and mitigation</text><text fill="#000000" font-family="sans-serif" font-size="11" lengthAdjust="spacing" textLength="116.6763" x="130" y="336.0854">Maintain risk register</text><text fill="#000000" font-family="sans-serif" font-size="11" lengthAdjust="spacing" textLength="44.4941" x="6" y="352.8901">Website</text><text fill="#000000" font-family="sans-serif" font-size="11" lengthAdjust="spacing" textLength="252.3286" x="242" y="369.6948">Update website with ongoing project changes</text><text fill="#000000" font-family="sans-serif" font-size="10" lengthAdjust="spacing" textLength="14.7461" x="0.627" y="383.5713">Mo</text><text fill="#000000" font-family="sans-serif" font-size="10" lengthAdjust="spacing" textLength="12.4463" x="17.7769" y="383.5713">Tu</text><text fill="#000000" font-family="sans-serif" font-size="10" lengthAdjust="spacing" textLength="16.04" x="32" y="383.5713">We</text><text fill="#000000" font-family="sans-serif" font-size="10" lengthAdjust="spacing" textLength="12.4463" x="49.7769" y="383.5713">Th</text><text fill="#000000" font-family="sans-serif" font-size="10" lengthAdjust="spacing" textLength="9.8633" x="67.0684" y="383.5713">Fr</text><text fill="#000000" font-family="sans-serif" font-size="10" lengthAdjust="spacing" textLength="12.4756" x="81.7622" y="383.5713">Sa</text><text fill="#000000" font-family="sans-serif" font-size="10" lengthAdjust="spacing" textLength="12.6855" x="97.6572" y="383.5713">Su</text><text fill="#000000" font-family="sans-serif" font-size="10" lengthAdjust="spacing" textLength="14.7461" x="112.627" y="383.5713">Mo</text><text fill="#000000" font-family="sans-serif" font-size="10" lengthAdjust="spacing" textLength="12.4463" x="129.7769" y="383.5713">Tu</text><text fill="#000000" font-family="sans-serif" font-size="10" lengthAdjust="spacing" textLength="16.04" x="144" y="383.5713">We</text><text fill="#000000" font-family="sans-serif" font-size="10" lengthAdjust="spacing" textLength="12.4463" x="161.7769" y="383.5713">Th</text><text fill="#000000" font-family="sans-serif" font-size="10" lengthAdjust="spacing" textLength="9.8633" x="179.0684" y="383.5713">Fr</text><text fill="#000000" font-family="sans-serif" font-size="10" lengthAdjust="spacing" textLength="12.4756" x="193.7622" y="383.5713">Sa</text><text fill="#000000" font-family="sans-serif" font-size="10" lengthAdjust="spacing" textLength="12.6855" x="209.6572" y="383.5713">Su</text><text fill="#000000" font-family="sans-serif" font-size="10" lengthAdjust="spacing" textLength="14.7461" x="224.627" y="383.5713">Mo</text><text fill="#000000" font-family="sans-serif" font-size="10" lengthAdjust="spacing" textLength="12.7246" x="1.6377" y="397.5713">28</text><text fill="#000000" font-family="sans-serif" font-size="10" lengthAdjust="spacing" textLength="12.7246" x="17.6377" y="397.5713">29</text><text fill="#000000" font-family="sans-serif" font-size="10" lengthAdjust="spacing" textLength="12.7246" x="33.6377" y="397.5713">30</text><text fill="#000000" font-family="sans-serif" font-size="10" lengthAdjust="spacing" textLength="12.7246" x="49.6377" y="397.5713">31</text><text fill="#000000" font-family="sans-serif" font-size="10" lengthAdjust="spacing" textLength="6.3623" x="68.8188" y="397.5713">1</text><text fill="#000000" font-family="sans-serif" font-size="10" lengthAdjust="spacing" textLength="6.3623" x="84.8188" y="397.5713">2</text><text fill="#000000" font-family="sans-serif" font-size="10" lengthAdjust="spacing" textLength="6.3623" x="100.8188" y="397.5713">3</text><text fill="#000000" font-family="sans-serif" font-size="10" lengthAdjust="spacing" textLength="6.3623" x="116.8188" y="397.5713">4</text><text fill="#000000" font-family="sans-serif" font-size="10" lengthAdjust="spacing" textLength="6.3623" x="132.8188" y="397.5713">5</text><text fill="#000000" font-family="sans-serif" font-size="10" lengthAdjust="spacing" textLength="6.3623" x="148.8188" y="397.5713">6</text><text fill="#000000" font-family="sans-serif" font-size="10" lengthAdjust="spacing" textLength="6.3623" x="164.8188" y="397.5713">7</text><text fill="#000000" font-family="sans-serif" font-size="10" lengthAdjust="spacing" textLength="6.3623" x="180.8188" y="397.5713">8</text><text fill="#000000" font-family="sans-serif" font-size="10" lengthAdjust="spacing" textLength="6.3623" x="196.8188" y="397.5713">9</text><text fill="#000000" font-family="sans-serif" font-size="10" lengthAdjust="spacing" textLength="12.7246" x="209.6377" y="397.5713">10</text><text fill="#000000" font-family="sans-serif" font-size="10" lengthAdjust="spacing" textLength="12.7246" x="225.6377" y="397.5713">11</text><text fill="#000000" font-family="sans-serif" font-size="12" font-weight="bold" lengthAdjust="spacing" textLength="53.9414" x="5.0293" y="412.4277">October</text><text fill="#000000" font-family="sans-serif" font-size="12" font-weight="bold" lengthAdjust="spacing" textLength="106.9746" x="98.5127" y="412.4277">November 2024</text><!--SRC=[dLPBKzim4BxhL-ojC6re7D9EoWdQb0wF30mqzC1ma6rXRsDBhYJp-FTTEGOSHKc0MwBzzjltDzutbckRSMajop4Le8KngjQ9C72hb8tL0xi-q4cELYIsrkA64Fzg91WC-f3oHmDSfe064bKeBUYdX9ESp_3pcElPXKZPzI5AD3cao3FDIzEXYEOKZ5qVbLKXIY4jjwXa1xBxsYW7QGebsI2kiKXHPjr0mtcS1cIn53fW6mk3cGGE9QzWI-ETq9yWnw8mdw2MLS4JmUD2WAcKDTkhoCM3QvFhdjwOoJnKwx82GzEGwPpEfK1i6sdBsc0Ii9rLL3gQfiDTtz7J42R2vef2YeA6JQ2cwHHLIehsdfcCLLAxeJwJGDc426NURiajIbuq-13eiYvBhj7G51wD5INLaZJWu59Te9a1DuPskid2vLkYnUpTIpRXI2jAxzfHQv4XPQ63mV-8sD3LT8lOVMMKQPLoA-1-pW3tQ7DGCbEkWPLMVsawaEHSPcAXHr_Qq8F-ODYBebx_6rW5J_-Y23XTX-GbnQH6nhGAnWtPtSFDUYUNQkroFP9qnT8boTXvcqaZ8QPrwVS68x9vcj52k8Nnnxvl56w_dyCF0thXkI_PVOPbEV4OVFCYmIWi9duHBrBYMTug927Y5J8IW7eY4a2ibv20GoiWdiMJZnThn-U3SRracxN4uzw0NfhF6c49Byk2h7YGDQBIAJ90r5QxZi3F_1MgrCPiKjk4NRgTLGBL9Ls5MJgZZeXr_PyV5noYw8t2rQLyawCVbktJo_mRXfrJr-rqSWfqT8swHJiEkJEAXUMxMrCva-fUag2L5T89kWFUPbk_pazX_jb3gcAinhXs_Trcn_oEmqKj7MuFpYeXZySdJm_mKzwXLj9DXXrVJLu0NuUzxsZXKcXA0wucR2nkULrOyaYKkxizcFu-x8tOAPLKyuouXMG_w4wjVYJRvNy0]--></g></svg>