<svg xmlns="http://www.w3.org/2000/svg" xmlns:xlink="http://www.w3.org/1999/xlink" contentStyleType="text/css" height="845px" preserveAspectRatio="none" style="width:2911px;height:845px;background:#FFFFFF;" version="1.1" viewBox="0 0 2911 845" width="2911px" zoomAndPan="magnify"><defs/><g><!--cluster io.github.eng1g4--><g id="cluster_io.github.eng1g4"><rect fill="none" height="832" rx="2.5" ry="2.5" style="stroke:#181818;stroke-width:1.0;" width="2898" x="7" y="7"/><path d="M128.9932,7 L128.9932,18.6211 L118.9932,28.6211 L7,28.6211 " fill="none" style="stroke:#181818;stroke-width:1.0;"/><text fill="#000000" font-family="sans-serif" font-size="14" font-weight="bold" lengthAdjust="spacing" textLength="111.9932" x="10" y="23.1074">io.github.eng1g4</text></g><!--cluster map--><g id="cluster_map"><path d="M426.5,254 L456.2861,254 A3.75,3.75 0 0 1 458.7861,256.5 L465.7861,278.6211 L1471.5,278.6211 A2.5,2.5 0 0 1 1474,281.1211 L1474,480.5 A2.5,2.5 0 0 1 1471.5,483 L426.5,483 A2.5,2.5 0 0 1 424,480.5 L424,256.5 A2.5,2.5 0 0 1 426.5,254 " fill="none" style="stroke:#000000;stroke-width:1.5;"/><line style="stroke:#000000;stroke-width:1.5;" x1="424" x2="465.7861" y1="278.6211" y2="278.6211"/><text fill="#000000" font-family="sans-serif" font-size="14" font-weight="bold" lengthAdjust="spacing" textLength="28.7861" x="428" y="271.1074">map</text></g><!--cluster building--><g id="cluster_building"><path d="M1991.5,52 L2046.9277,52 A3.75,3.75 0 0 1 2049.4277,54.5 L2056.4277,76.6211 L2878.5,76.6211 A2.5,2.5 0 0 1 2881,79.1211 L2881,812.5 A2.5,2.5 0 0 1 2878.5,815 L1991.5,815 A2.5,2.5 0 0 1 1989,812.5 L1989,54.5 A2.5,2.5 0 0 1 1991.5,52 " fill="none" style="stroke:#000000;stroke-width:1.5;"/><line style="stroke:#000000;stroke-width:1.5;" x1="1989" x2="2056.4277" y1="76.6211" y2="76.6211"/><text fill="#000000" font-family="sans-serif" font-size="14" font-weight="bold" lengthAdjust="spacing" textLength="54.4277" x="1993" y="69.1074">building</text></g><!--cluster event--><g id="cluster_event"><path d="M1508.5,80 L1546.0723,80 A3.75,3.75 0 0 1 1548.5723,82.5 L1555.5723,104.6211 L1962.5,104.6211 A2.5,2.5 0 0 1 1965,107.1211 L1965,724 A2.5,2.5 0 0 1 1962.5,726.5 L1508.5,726.5 A2.5,2.5 0 0 1 1506,724 L1506,82.5 A2.5,2.5 0 0 1 1508.5,80 " fill="none" style="stroke:#000000;stroke-width:1.5;"/><line style="stroke:#000000;stroke-width:1.5;" x1="1506" x2="1555.5723" y1="104.6211" y2="104.6211"/><text fill="#000000" font-family="sans-serif" font-size="14" font-weight="bold" lengthAdjust="spacing" textLength="36.5723" x="1510" y="97.1074">event</text></g><!--cluster menu--><g id="cluster_menu"><path d="M998.5,98.5 L1036.8379,98.5 A3.75,3.75 0 0 1 1039.3379,101 L1046.3379,123.1211 L1265.5,123.1211 A2.5,2.5 0 0 1 1268,125.6211 L1268,197 A2.5,2.5 0 0 1 1265.5,199.5 L998.5,199.5 A2.5,2.5 0 0 1 996,197 L996,101 A2.5,2.5 0 0 1 998.5,98.5 " fill="none" style="stroke:#000000;stroke-width:1.5;"/><line style="stroke:#000000;stroke-width:1.5;" x1="996" x2="1046.3379" y1="123.1211" y2="123.1211"/><text fill="#000000" font-family="sans-serif" font-size="14" font-weight="bold" lengthAdjust="spacing" textLength="37.3379" x="1000" y="115.6074">menu</text></g><g id="elem_GMN9"><path d="M521,146 L521,173.291 L763.1523,173.291 L763.1523,156 L753.1523,146 L521,146 " fill="#FEFFDD" style="stroke:#181818;stroke-width:0.5;"/><path d="M753.1523,146 L753.1523,156 L763.1523,156 L753.1523,146 " fill="#FEFFDD" style="stroke:#181818;stroke-width:1.0;"/><text fill="#000000" font-family="sans-serif" font-size="13" lengthAdjust="spacing" textLength="221.1523" x="527" y="165.0283">Probably included in the game engine.</text></g><!--class TimeCounter--><g id="elem_TimeCounter"><rect codeLine="134" fill="#F1F1F1" height="48" id="TimeCounter" rx="2.5" ry="2.5" style="stroke:#181818;stroke-width:0.5;" width="112.917" x="283.5" y="355"/><ellipse cx="298.5" cy="371" fill="#ADD1B2" rx="11" ry="11" style="stroke:#181818;stroke-width:1.0;"/><path d="M301.2656,366.875 Q301.4219,366.6563 301.6094,366.5469 Q301.7969,366.4375 302.0156,366.4375 Q302.3906,366.4375 302.625,366.7031 Q302.8594,366.9531 302.8594,367.5625 L302.8594,369.0156 Q302.8594,369.625 302.625,369.8906 Q302.3906,370.1563 302.0156,370.1563 Q301.6719,370.1563 301.4688,369.9531 Q301.2656,369.7656 301.1563,369.25 Q301.1094,368.8906 300.9219,368.7031 Q300.5938,368.3281 299.9844,368.1094 Q299.375,367.8906 298.75,367.8906 Q297.9844,367.8906 297.3438,368.2188 Q296.7188,368.5469 296.2188,369.2969 Q295.7344,370.0469 295.7344,371.0781 L295.7344,372.1719 Q295.7344,373.4063 296.625,374.2344 Q297.5156,375.0469 299.1094,375.0469 Q300.0469,375.0469 300.7031,374.7969 Q301.0938,374.6406 301.5156,374.2031 Q301.7813,373.9375 301.9219,373.8594 Q302.0781,373.7813 302.2813,373.7813 Q302.6094,373.7813 302.8594,374.0469 Q303.125,374.2969 303.125,374.6406 Q303.125,374.9844 302.7813,375.3906 Q302.2813,375.9688 301.4844,376.2969 Q300.4063,376.75 299.1094,376.75 Q297.5938,376.75 296.3906,376.125 Q295.4063,375.625 294.7188,374.5625 Q294.0313,373.4844 294.0313,372.2031 L294.0313,371.0469 Q294.0313,369.7188 294.6406,368.5781 Q295.2656,367.4219 296.3594,366.8125 Q297.4531,366.1875 298.6875,366.1875 Q299.4219,366.1875 300.0625,366.3594 Q300.7188,366.5156 301.2656,366.875 Z " fill="#000000"/><text fill="#000000" font-family="sans-serif" font-size="14" lengthAdjust="spacing" textLength="80.917" x="312.5" y="376.7969">TimeCounter</text><line style="stroke:#181818;stroke-width:0.5;" x1="284.5" x2="395.417" y1="387" y2="387"/><line style="stroke:#181818;stroke-width:0.5;" x1="284.5" x2="395.417" y1="395" y2="395"/></g><g id="elem_GMN48"><path d="M280.5,146 L280.5,173.291 A0,0 0 0 0 280.5,173.291 L376.5,173.291 L344.61,354.67 L384.5,173.291 L485.0361,173.291 A0,0 0 0 0 485.0361,173.291 L485.0361,156 L475.0361,146 L280.5,146 A0,0 0 0 0 280.5,146 " fill="#FEFFDD" style="stroke:#181818;stroke-width:0.5;"/><path d="M475.0361,146 L475.0361,156 L485.0361,156 L475.0361,146 " fill="#FEFFDD" style="stroke:#181818;stroke-width:0.5;"/><text fill="#000000" font-family="sans-serif" font-size="13" lengthAdjust="spacing" textLength="183.5361" x="286.5" y="165.0283">Responsible for displaying time.</text></g><!--class GameState--><g id="elem_GameState"><rect codeLine="141" fill="#F1F1F1" height="122.4844" id="GameState" rx="2.5" ry="2.5" style="stroke:#181818;stroke-width:0.5;" width="225.2266" x="23.5" y="318"/><ellipse cx="96.4565" cy="334" fill="#ADD1B2" rx="11" ry="11" style="stroke:#181818;stroke-width:1.0;"/><path d="M99.2222,329.875 Q99.3784,329.6563 99.5659,329.5469 Q99.7534,329.4375 99.9722,329.4375 Q100.3472,329.4375 100.5815,329.7031 Q100.8159,329.9531 100.8159,330.5625 L100.8159,332.0156 Q100.8159,332.625 100.5815,332.8906 Q100.3472,333.1563 99.9722,333.1563 Q99.6284,333.1563 99.4253,332.9531 Q99.2222,332.7656 99.1128,332.25 Q99.0659,331.8906 98.8784,331.7031 Q98.5503,331.3281 97.9409,331.1094 Q97.3315,330.8906 96.7065,330.8906 Q95.9409,330.8906 95.3003,331.2188 Q94.6753,331.5469 94.1753,332.2969 Q93.6909,333.0469 93.6909,334.0781 L93.6909,335.1719 Q93.6909,336.4063 94.5815,337.2344 Q95.4722,338.0469 97.0659,338.0469 Q98.0034,338.0469 98.6597,337.7969 Q99.0503,337.6406 99.4722,337.2031 Q99.7378,336.9375 99.8784,336.8594 Q100.0347,336.7813 100.2378,336.7813 Q100.5659,336.7813 100.8159,337.0469 Q101.0815,337.2969 101.0815,337.6406 Q101.0815,337.9844 100.7378,338.3906 Q100.2378,338.9688 99.4409,339.2969 Q98.3628,339.75 97.0659,339.75 Q95.5503,339.75 94.3472,339.125 Q93.3628,338.625 92.6753,337.5625 Q91.9878,336.4844 91.9878,335.2031 L91.9878,334.0469 Q91.9878,332.7188 92.5972,331.5781 Q93.2222,330.4219 94.3159,329.8125 Q95.4097,329.1875 96.644,329.1875 Q97.3784,329.1875 98.019,329.3594 Q98.6753,329.5156 99.2222,329.875 Z " fill="#000000"/><text fill="#000000" font-family="sans-serif" font-size="14" lengthAdjust="spacing" textLength="70.8135" x="116.9565" y="339.7969">GameState</text><line style="stroke:#181818;stroke-width:0.5;" x1="24.5" x2="247.7266" y1="350" y2="350"/><text fill="#000000" font-family="sans-serif" font-size="14" lengthAdjust="spacing" textLength="79.3994" x="29.5" y="369.1074">long balance</text><line style="stroke:#181818;stroke-width:0.5;" x1="24.5" x2="247.7266" y1="376.6211" y2="376.6211"/><text fill="#000000" font-family="sans-serif" font-size="14" lengthAdjust="spacing" textLength="109.7373" x="29.5" y="395.7285">long getBalance()</text><text fill="#000000" font-family="sans-serif" font-size="14" lengthAdjust="spacing" textLength="189.9023" x="29.5" y="414.3496">void addBalance(long amount)</text><text fill="#000000" font-family="sans-serif" font-size="14" lengthAdjust="spacing" textLength="213.2266" x="29.5" y="432.9707">void removeBalance(long amount)</text></g><g id="elem_GMN52"><path d="M23,128.5 L23,190.373 A0,0 0 0 0 23,190.373 L130.28,190.373 L135.44,317.63 L138.28,190.373 L244.8906,190.373 A0,0 0 0 0 244.8906,190.373 L244.8906,138.5 L234.8906,128.5 L23,128.5 A0,0 0 0 0 23,128.5 " fill="#FEFFDD" style="stroke:#181818;stroke-width:0.5;"/><path d="M234.8906,128.5 L234.8906,138.5 L244.8906,138.5 L234.8906,128.5 " fill="#FEFFDD" style="stroke:#181818;stroke-width:0.5;"/><text fill="#000000" font-family="sans-serif" font-size="13" lengthAdjust="spacing" textLength="197.2661" x="29" y="147.5283">Game entry point. Responsible for</text><text fill="#000000" font-family="sans-serif" font-size="13" lengthAdjust="spacing" textLength="197.2979" x="29" y="164.8193">setting up the game and triggering</text><text fill="#000000" font-family="sans-serif" font-size="13" lengthAdjust="spacing" textLength="200.8906" x="29" y="182.1104">calculations of student satisfaction.</text></g><!--class Location--><g id="elem_Location"><rect codeLine="7" fill="#F1F1F1" height="159.7266" id="Location" rx="2.5" ry="2.5" style="stroke:#181818;stroke-width:0.5;" width="116.2617" x="752" y="299"/><ellipse cx="781.099" cy="315" fill="#ADD1B2" rx="11" ry="11" style="stroke:#181818;stroke-width:1.0;"/><path d="M783.8646,310.875 Q784.0208,310.6563 784.2083,310.5469 Q784.3958,310.4375 784.6146,310.4375 Q784.9896,310.4375 785.224,310.7031 Q785.4583,310.9531 785.4583,311.5625 L785.4583,313.0156 Q785.4583,313.625 785.224,313.8906 Q784.9896,314.1563 784.6146,314.1563 Q784.2708,314.1563 784.0677,313.9531 Q783.8646,313.7656 783.7552,313.25 Q783.7083,312.8906 783.5208,312.7031 Q783.1927,312.3281 782.5833,312.1094 Q781.974,311.8906 781.349,311.8906 Q780.5833,311.8906 779.9427,312.2188 Q779.3177,312.5469 778.8177,313.2969 Q778.3333,314.0469 778.3333,315.0781 L778.3333,316.1719 Q778.3333,317.4063 779.224,318.2344 Q780.1146,319.0469 781.7083,319.0469 Q782.6458,319.0469 783.3021,318.7969 Q783.6927,318.6406 784.1146,318.2031 Q784.3802,317.9375 784.5208,317.8594 Q784.6771,317.7813 784.8802,317.7813 Q785.2083,317.7813 785.4583,318.0469 Q785.724,318.2969 785.724,318.6406 Q785.724,318.9844 785.3802,319.3906 Q784.8802,319.9688 784.0833,320.2969 Q783.0052,320.75 781.7083,320.75 Q780.1927,320.75 778.9896,320.125 Q778.0052,319.625 777.3177,318.5625 Q776.6302,317.4844 776.6302,316.2031 L776.6302,315.0469 Q776.6302,313.7188 777.2396,312.5781 Q777.8646,311.4219 778.9583,310.8125 Q780.0521,310.1875 781.2865,310.1875 Q782.0208,310.1875 782.6615,310.3594 Q783.3177,310.5156 783.8646,310.875 Z " fill="#000000"/><text fill="#000000" font-family="sans-serif" font-size="14" lengthAdjust="spacing" textLength="52.9307" x="798.2321" y="320.7969">Location</text><line style="stroke:#181818;stroke-width:0.5;" x1="753" x2="867.2617" y1="331" y2="331"/><text fill="#000000" font-family="sans-serif" font-size="14" lengthAdjust="spacing" textLength="37.3516" x="758" y="350.1074">float x</text><text fill="#000000" font-family="sans-serif" font-size="14" lengthAdjust="spacing" textLength="37.3516" x="758" y="368.7285">float y</text><line style="stroke:#181818;stroke-width:0.5;" x1="753" x2="867.2617" y1="376.2422" y2="376.2422"/><text fill="#000000" font-family="sans-serif" font-size="14" lengthAdjust="spacing" textLength="68.4756" x="758" y="395.3496">float getX()</text><text fill="#000000" font-family="sans-serif" font-size="14" lengthAdjust="spacing" textLength="68.4756" x="758" y="413.9707">float getY()</text><text fill="#000000" font-family="sans-serif" font-size="14" lengthAdjust="spacing" textLength="104.2617" x="758" y="432.5918">void setX(float x)</text><text fill="#000000" font-family="sans-serif" font-size="14" lengthAdjust="spacing" textLength="104.2617" x="758" y="451.2129">void setY(float y)</text></g><!--class BoundingBox--><g id="elem_BoundingBox"><rect codeLine="16" fill="#F1F1F1" height="141.1055" id="BoundingBox" rx="2.5" ry="2.5" style="stroke:#181818;stroke-width:0.5;" width="250.1504" x="467" y="308.5"/><ellipse cx="546.1807" cy="324.5" fill="#ADD1B2" rx="11" ry="11" style="stroke:#181818;stroke-width:1.0;"/><path d="M548.9463,320.375 Q549.1025,320.1563 549.29,320.0469 Q549.4775,319.9375 549.6963,319.9375 Q550.0713,319.9375 550.3057,320.2031 Q550.54,320.4531 550.54,321.0625 L550.54,322.5156 Q550.54,323.125 550.3057,323.3906 Q550.0713,323.6563 549.6963,323.6563 Q549.3525,323.6563 549.1494,323.4531 Q548.9463,323.2656 548.8369,322.75 Q548.79,322.3906 548.6025,322.2031 Q548.2744,321.8281 547.665,321.6094 Q547.0557,321.3906 546.4307,321.3906 Q545.665,321.3906 545.0244,321.7188 Q544.3994,322.0469 543.8994,322.7969 Q543.415,323.5469 543.415,324.5781 L543.415,325.6719 Q543.415,326.9063 544.3057,327.7344 Q545.1963,328.5469 546.79,328.5469 Q547.7275,328.5469 548.3838,328.2969 Q548.7744,328.1406 549.1963,327.7031 Q549.4619,327.4375 549.6025,327.3594 Q549.7588,327.2813 549.9619,327.2813 Q550.29,327.2813 550.54,327.5469 Q550.8057,327.7969 550.8057,328.1406 Q550.8057,328.4844 550.4619,328.8906 Q549.9619,329.4688 549.165,329.7969 Q548.0869,330.25 546.79,330.25 Q545.2744,330.25 544.0713,329.625 Q543.0869,329.125 542.3994,328.0625 Q541.7119,326.9844 541.7119,325.7031 L541.7119,324.5469 Q541.7119,323.2188 542.3213,322.0781 Q542.9463,320.9219 544.04,320.3125 Q545.1338,319.6875 546.3682,319.6875 Q547.1025,319.6875 547.7432,319.8594 Q548.3994,320.0156 548.9463,320.375 Z " fill="#000000"/><text fill="#000000" font-family="sans-serif" font-size="14" lengthAdjust="spacing" textLength="83.2891" x="566.6807" y="330.2969">BoundingBox</text><line style="stroke:#181818;stroke-width:0.5;" x1="468" x2="716.1504" y1="340.5" y2="340.5"/><text fill="#000000" font-family="sans-serif" font-size="14" lengthAdjust="spacing" textLength="99.6338" x="473" y="359.6074">Location topLeft</text><text fill="#000000" font-family="sans-serif" font-size="14" lengthAdjust="spacing" textLength="108.9648" x="473" y="378.2285">Location topRight</text><text fill="#000000" font-family="sans-serif" font-size="14" lengthAdjust="spacing" textLength="122.9717" x="473" y="396.8496">Location bottomLeft</text><text fill="#000000" font-family="sans-serif" font-size="14" lengthAdjust="spacing" textLength="132.3027" x="473" y="415.4707">Location bottomRight</text><line style="stroke:#181818;stroke-width:0.5;" x1="468" x2="716.1504" y1="422.9844" y2="422.9844"/><text fill="#000000" font-family="sans-serif" font-size="14" lengthAdjust="spacing" textLength="238.1504" x="473" y="442.0918">intersects(BoundingBox boundingBox)</text></g><!--class Map--><g id="elem_Map"><rect codeLine="24" fill="#F1F1F1" height="103.8633" id="Map" rx="2.5" ry="2.5" style="stroke:#181818;stroke-width:0.5;" width="301.5498" x="903" y="327"/><ellipse cx="1035.9077" cy="343" fill="#ADD1B2" rx="11" ry="11" style="stroke:#181818;stroke-width:1.0;"/><path d="M1038.6733,338.875 Q1038.8296,338.6563 1039.0171,338.5469 Q1039.2046,338.4375 1039.4233,338.4375 Q1039.7983,338.4375 1040.0327,338.7031 Q1040.2671,338.9531 1040.2671,339.5625 L1040.2671,341.0156 Q1040.2671,341.625 1040.0327,341.8906 Q1039.7983,342.1563 1039.4233,342.1563 Q1039.0796,342.1563 1038.8765,341.9531 Q1038.6733,341.7656 1038.564,341.25 Q1038.5171,340.8906 1038.3296,340.7031 Q1038.0015,340.3281 1037.3921,340.1094 Q1036.7827,339.8906 1036.1577,339.8906 Q1035.3921,339.8906 1034.7515,340.2188 Q1034.1265,340.5469 1033.6265,341.2969 Q1033.1421,342.0469 1033.1421,343.0781 L1033.1421,344.1719 Q1033.1421,345.4063 1034.0327,346.2344 Q1034.9233,347.0469 1036.5171,347.0469 Q1037.4546,347.0469 1038.1108,346.7969 Q1038.5015,346.6406 1038.9233,346.2031 Q1039.189,345.9375 1039.3296,345.8594 Q1039.4858,345.7813 1039.689,345.7813 Q1040.0171,345.7813 1040.2671,346.0469 Q1040.5327,346.2969 1040.5327,346.6406 Q1040.5327,346.9844 1040.189,347.3906 Q1039.689,347.9688 1038.8921,348.2969 Q1037.814,348.75 1036.5171,348.75 Q1035.0015,348.75 1033.7983,348.125 Q1032.814,347.625 1032.1265,346.5625 Q1031.439,345.4844 1031.439,344.2031 L1031.439,343.0469 Q1031.439,341.7188 1032.0483,340.5781 Q1032.6733,339.4219 1033.7671,338.8125 Q1034.8608,338.1875 1036.0952,338.1875 Q1036.8296,338.1875 1037.4702,338.3594 Q1038.1265,338.5156 1038.6733,338.875 Z " fill="#000000"/><text fill="#000000" font-family="sans-serif" font-size="14" lengthAdjust="spacing" textLength="27.2344" x="1056.4077" y="348.7969">Map</text><line style="stroke:#181818;stroke-width:0.5;" x1="904" x2="1203.5498" y1="359" y2="359"/><text fill="#000000" font-family="sans-serif" font-size="14" lengthAdjust="spacing" textLength="156.4199" x="909" y="378.1074">List&lt;Obstacle&gt; obstacles</text><text fill="#000000" font-family="sans-serif" font-size="14" lengthAdjust="spacing" textLength="189.9092" x="909" y="396.7285">List&lt;Building&gt; placedBuildings</text><line style="stroke:#181818;stroke-width:0.5;" x1="904" x2="1203.5498" y1="404.2422" y2="404.2422"/><text fill="#000000" font-family="sans-serif" font-size="14" lengthAdjust="spacing" textLength="289.5498" x="909" y="423.3496">boolean canPlace(BoundingBox boundingBox)</text></g><path d="M1240,343 L1240,369.9365 L1198.5498,417.5527 L1240,377.9365 L1240,404.873 A0,0 0 0 0 1240,404.873 L1450.3442,404.873 A0,0 0 0 0 1450.3442,404.873 L1450.3442,353 L1440.3442,343 L1240,343 A0,0 0 0 0 1240,343 " fill="#FEFFDD" style="stroke:#181818;stroke-width:0.5;"/><path d="M1440.3442,343 L1440.3442,353 L1450.3442,353 L1440.3442,343 " fill="#FEFFDD" style="stroke:#181818;stroke-width:0.5;"/><text fill="#000000" font-family="sans-serif" font-size="13" lengthAdjust="spacing" textLength="189.3442" x="1246" y="362.0283">Checks if the given boundingBox</text><text fill="#000000" font-family="sans-serif" font-size="13" lengthAdjust="spacing" textLength="153.9053" x="1246" y="379.3193">intersects any obstacles or</text><text fill="#000000" font-family="sans-serif" font-size="13" lengthAdjust="spacing" textLength="96.8462" x="1246" y="396.6104">placed buildings.</text><!--class BuildingProperty--><g id="elem_BuildingProperty"><rect codeLine="44" fill="#F1F1F1" height="122.4844" id="BuildingProperty" rx="2.5" ry="2.5" style="stroke:#181818;stroke-width:0.5;" width="139.5518" x="2725" y="98.5"/><ellipse cx="2742.1727" cy="114.5" fill="#EB937F" rx="11" ry="11" style="stroke:#181818;stroke-width:1.0;"/><path d="M2741.032,115.2969 L2741.032,117.7969 L2745.3602,117.7969 L2745.3602,116.875 Q2745.3602,116.2656 2745.5945,116 Q2745.8445,115.7344 2746.2195,115.7344 Q2746.5945,115.7344 2746.8289,116 Q2747.0633,116.2656 2747.0633,116.875 L2747.0633,119.5 L2739.0633,119.5 Q2738.4383,119.5 2738.1727,119.2656 Q2737.9227,119.0313 2737.9227,118.6406 Q2737.9227,118.2656 2738.1883,118.0313 Q2738.4539,117.7969 2739.0633,117.7969 L2739.3289,117.7969 L2739.3289,111.1406 L2739.0633,111.1406 Q2738.4383,111.1406 2738.1727,110.9063 Q2737.9227,110.6719 2737.9227,110.2813 Q2737.9227,109.9063 2738.1727,109.6719 Q2738.4383,109.4375 2739.0633,109.4375 L2746.6883,109.4375 L2746.6883,112.0313 Q2746.6883,112.6406 2746.4539,112.9063 Q2746.2352,113.1563 2745.8445,113.1563 Q2745.4695,113.1563 2745.2352,112.9063 Q2745.0008,112.6406 2745.0008,112.0313 L2745.0008,111.1406 L2741.032,111.1406 L2741.032,113.5938 L2742.5164,113.5938 Q2742.5164,112.9375 2742.6414,112.75 Q2742.907,112.3438 2743.3758,112.3438 Q2743.7508,112.3438 2743.9852,112.6094 Q2744.2195,112.8594 2744.2195,113.4688 L2744.2195,115.4375 Q2744.2195,115.9844 2744.0945,116.1719 Q2743.8289,116.5625 2743.3758,116.5625 Q2742.907,116.5625 2742.6414,116.1563 Q2742.5164,115.9688 2742.5164,115.2969 L2741.032,115.2969 Z " fill="#000000"/><text fill="#000000" font-family="sans-serif" font-size="14" lengthAdjust="spacing" textLength="102.7236" x="2756.6555" y="120.2969">BuildingProperty</text><line style="stroke:#181818;stroke-width:0.5;" x1="2726" x2="2863.5518" y1="130.5" y2="130.5"/><text fill="#000000" font-family="sans-serif" font-size="14" lengthAdjust="spacing" textLength="72.3379" x="2731" y="149.6074">TEACHING</text><text fill="#000000" font-family="sans-serif" font-size="14" lengthAdjust="spacing" textLength="127.5518" x="2731" y="168.2285">ACCOMMODATION</text><text fill="#000000" font-family="sans-serif" font-size="14" lengthAdjust="spacing" textLength="108.9102" x="2731" y="186.8496">RECREATIONAL</text><text fill="#000000" font-family="sans-serif" font-size="14" lengthAdjust="spacing" textLength="94.8965" x="2731" y="205.4707">RESTAURANT</text><line style="stroke:#181818;stroke-width:0.5;" x1="2726" x2="2863.5518" y1="212.9844" y2="212.9844"/></g><!--class IBuilding--><g id="elem_IBuilding"><rect codeLine="51" fill="#F1F1F1" height="141.1055" id="IBuilding" rx="2.5" ry="2.5" style="stroke:#181818;stroke-width:0.5;" width="299.1572" x="2390.5" y="89"/><ellipse cx="2508.9771" cy="105" fill="#B4A7E5" rx="11" ry="11" style="stroke:#181818;stroke-width:1.0;"/><path d="M2509.9302,101.6406 L2509.9302,108.2969 L2511.6489,108.2969 Q2512.2583,108.2969 2512.5239,108.5313 Q2512.7896,108.7656 2512.7896,109.1563 Q2512.7896,109.5313 2512.5239,109.7656 Q2512.2583,110 2511.6489,110 L2506.5083,110 Q2505.8989,110 2505.6333,109.7656 Q2505.3677,109.5313 2505.3677,109.1406 Q2505.3677,108.7656 2505.6333,108.5313 Q2505.8989,108.2969 2506.5083,108.2969 L2508.2271,108.2969 L2508.2271,101.6406 L2506.5083,101.6406 Q2505.8989,101.6406 2505.6333,101.4063 Q2505.3677,101.1719 2505.3677,100.7813 Q2505.3677,100.4063 2505.6333,100.1719 Q2505.8989,99.9375 2506.5083,99.9375 L2511.6489,99.9375 Q2512.2583,99.9375 2512.5239,100.1719 Q2512.7896,100.4063 2512.7896,100.7813 Q2512.7896,101.1719 2512.5239,101.4063 Q2512.2583,101.6406 2511.6489,101.6406 L2509.9302,101.6406 Z " fill="#000000"/><text fill="#000000" font-family="sans-serif" font-size="14" font-style="italic" lengthAdjust="spacing" textLength="53.7031" x="2529.4771" y="110.7969">IBuilding</text><line style="stroke:#181818;stroke-width:0.5;" x1="2391.5" x2="2688.6572" y1="121" y2="121"/><line style="stroke:#181818;stroke-width:0.5;" x1="2391.5" x2="2688.6572" y1="129" y2="129"/><text fill="#000000" font-family="sans-serif" font-size="14" lengthAdjust="spacing" textLength="231.8818" x="2396.5" y="148.1074">float getDistanceFrom(Building other)</text><text fill="#000000" font-family="sans-serif" font-size="14" lengthAdjust="spacing" textLength="101.9307" x="2396.5" y="166.7285">int getCapacity()</text><text fill="#000000" font-family="sans-serif" font-size="14" lengthAdjust="spacing" textLength="149.4063" x="2396.5" y="185.3496">int getCurrentStudents()</text><text fill="#000000" font-family="sans-serif" font-size="14" lengthAdjust="spacing" textLength="287.1572" x="2396.5" y="203.9707">List&lt;BuildingProperty&gt; getBuildingProperties()</text><text fill="#000000" font-family="sans-serif" font-size="14" lengthAdjust="spacing" textLength="76.248" x="2396.5" y="222.5918">int getCost()</text></g><!--class Building--><g id="elem_Building"><rect codeLine="59" fill="#F1F1F1" height="141.1055" id="Building" rx="2.5" ry="2.5" style="stroke:#181818;stroke-width:0.5;" width="268.8193" x="2551.5" y="308.5"/><ellipse cx="2656.7529" cy="324.5" fill="#A9DCDF" rx="11" ry="11" style="stroke:#181818;stroke-width:1.0;"/><path d="M2658.9404,326.2656 L2654.7998,326.2656 L2654.3779,327.2969 L2654.7998,327.2969 Q2655.4092,327.2969 2655.6748,327.5313 Q2655.9404,327.7656 2655.9404,328.1563 Q2655.9404,328.5313 2655.6748,328.7656 Q2655.4092,329 2654.7998,329 L2652.5029,329 Q2651.8936,329 2651.6436,328.7656 Q2651.3779,328.5313 2651.3779,328.1406 Q2651.3779,327.7656 2651.6592,327.5313 Q2651.9248,327.2813 2652.5498,327.2969 L2655.2217,320.6406 L2654.1123,320.6406 Q2653.5029,320.6406 2653.2373,320.4063 Q2652.9717,320.1719 2652.9717,319.7813 Q2652.9717,319.4063 2653.2373,319.1719 Q2653.5029,318.9375 2654.1123,318.9375 L2657.7842,318.9375 L2661.1748,327.2969 Q2661.7686,327.2969 2661.9561,327.4375 Q2662.3467,327.7031 2662.3467,328.1563 Q2662.3467,328.5313 2662.0811,328.7656 Q2661.8311,329 2661.2217,329 L2658.9248,329 Q2658.3154,329 2658.0498,328.7656 Q2657.7842,328.5313 2657.7842,328.1406 Q2657.7842,327.7656 2658.0498,327.5313 Q2658.3154,327.2969 2658.9248,327.2969 L2659.3467,327.2969 L2658.9404,326.2656 Z M2658.2217,324.5625 L2656.8623,321.1875 L2655.4873,324.5625 L2658.2217,324.5625 Z " fill="#000000"/><text fill="#000000" font-family="sans-serif" font-size="14" font-style="italic" lengthAdjust="spacing" textLength="49.8135" x="2677.2529" y="330.2969">Building</text><line style="stroke:#181818;stroke-width:0.5;" x1="2552.5" x2="2819.3193" y1="340.5" y2="340.5"/><text fill="#000000" font-family="sans-serif" font-size="14" lengthAdjust="spacing" textLength="119.0684" x="2557.5" y="359.6074">int studentCapacity</text><text fill="#000000" font-family="sans-serif" font-size="14" lengthAdjust="spacing" textLength="117.5098" x="2557.5" y="378.2285">int currentStudents</text><text fill="#000000" font-family="sans-serif" font-size="14" lengthAdjust="spacing" textLength="256.8193" x="2557.5" y="396.8496">List&lt;BuildingProperty&gt; buildingProperties</text><text fill="#000000" font-family="sans-serif" font-size="14" lengthAdjust="spacing" textLength="44.3516" x="2557.5" y="415.4707">int cost</text><text fill="#000000" font-family="sans-serif" font-size="14" lengthAdjust="spacing" textLength="168.916" x="2557.5" y="434.0918">BoundingBox boundingBox</text><line style="stroke:#181818;stroke-width:0.5;" x1="2552.5" x2="2819.3193" y1="441.6055" y2="441.6055"/></g><!--class Accommodation--><g id="elem_Accommodation"><rect codeLine="67" fill="#F1F1F1" height="66.6211" id="Accommodation" rx="2.5" ry="2.5" style="stroke:#181818;stroke-width:0.5;" width="242.3369" x="2170" y="528"/><ellipse cx="2236.729" cy="544" fill="#ADD1B2" rx="11" ry="11" style="stroke:#181818;stroke-width:1.0;"/><path d="M2239.4946,539.875 Q2239.6509,539.6563 2239.8384,539.5469 Q2240.0259,539.4375 2240.2446,539.4375 Q2240.6196,539.4375 2240.854,539.7031 Q2241.0884,539.9531 2241.0884,540.5625 L2241.0884,542.0156 Q2241.0884,542.625 2240.854,542.8906 Q2240.6196,543.1563 2240.2446,543.1563 Q2239.9009,543.1563 2239.6978,542.9531 Q2239.4946,542.7656 2239.3853,542.25 Q2239.3384,541.8906 2239.1509,541.7031 Q2238.8228,541.3281 2238.2134,541.1094 Q2237.604,540.8906 2236.979,540.8906 Q2236.2134,540.8906 2235.5728,541.2188 Q2234.9478,541.5469 2234.4478,542.2969 Q2233.9634,543.0469 2233.9634,544.0781 L2233.9634,545.1719 Q2233.9634,546.4063 2234.854,547.2344 Q2235.7446,548.0469 2237.3384,548.0469 Q2238.2759,548.0469 2238.9321,547.7969 Q2239.3228,547.6406 2239.7446,547.2031 Q2240.0103,546.9375 2240.1509,546.8594 Q2240.3071,546.7813 2240.5103,546.7813 Q2240.8384,546.7813 2241.0884,547.0469 Q2241.354,547.2969 2241.354,547.6406 Q2241.354,547.9844 2241.0103,548.3906 Q2240.5103,548.9688 2239.7134,549.2969 Q2238.6353,549.75 2237.3384,549.75 Q2235.8228,549.75 2234.6196,549.125 Q2233.6353,548.625 2232.9478,547.5625 Q2232.2603,546.4844 2232.2603,545.2031 L2232.2603,544.0469 Q2232.2603,542.7188 2232.8696,541.5781 Q2233.4946,540.4219 2234.5884,539.8125 Q2235.6821,539.1875 2236.9165,539.1875 Q2237.6509,539.1875 2238.2915,539.3594 Q2238.9478,539.5156 2239.4946,539.875 Z " fill="#000000"/><text fill="#000000" font-family="sans-serif" font-size="14" lengthAdjust="spacing" textLength="100.3789" x="2257.229" y="549.7969">Accommodation</text><line style="stroke:#181818;stroke-width:0.5;" x1="2171" x2="2411.3369" y1="560" y2="560"/><line style="stroke:#181818;stroke-width:0.5;" x1="2171" x2="2411.3369" y1="568" y2="568"/><text fill="#000000" font-family="sans-serif" font-size="14" lengthAdjust="spacing" textLength="230.3369" x="2176" y="587.1074">void globalAccommodationFunction()</text></g><g id="elem_GMN19"><path d="M2005.5,365.5 L2005.5,392.791 A0,0 0 0 0 2005.5,392.791 L2259.11,392.791 L2285.56,527.78 L2267.11,392.791 L2516.3677,392.791 A0,0 0 0 0 2516.3677,392.791 L2516.3677,375.5 L2506.3677,365.5 L2005.5,365.5 A0,0 0 0 0 2005.5,365.5 " fill="#FEFFDD" style="stroke:#181818;stroke-width:0.5;"/><path d="M2506.3677,365.5 L2506.3677,375.5 L2516.3677,375.5 L2506.3677,365.5 " fill="#FEFFDD" style="stroke:#181818;stroke-width:0.5;"/><text fill="#000000" font-family="sans-serif" font-size="13" lengthAdjust="spacing" textLength="489.8677" x="2011.5" y="384.5283">The constructor would add BuildingProperty.ACCOMMODATION to buildingProperty.</text></g><!--class ExampleAccommodationVariant--><g id="elem_ExampleAccommodationVariant"><rect codeLine="75" fill="#F1F1F1" height="48" id="ExampleAccommodationVariant" rx="2.5" ry="2.5" style="stroke:#181818;stroke-width:0.5;" width="231.2061" x="2175.5" y="664"/><ellipse cx="2190.5" cy="680" fill="#ADD1B2" rx="11" ry="11" style="stroke:#181818;stroke-width:1.0;"/><path d="M2193.2656,675.875 Q2193.4219,675.6563 2193.6094,675.5469 Q2193.7969,675.4375 2194.0156,675.4375 Q2194.3906,675.4375 2194.625,675.7031 Q2194.8594,675.9531 2194.8594,676.5625 L2194.8594,678.0156 Q2194.8594,678.625 2194.625,678.8906 Q2194.3906,679.1563 2194.0156,679.1563 Q2193.6719,679.1563 2193.4688,678.9531 Q2193.2656,678.7656 2193.1563,678.25 Q2193.1094,677.8906 2192.9219,677.7031 Q2192.5938,677.3281 2191.9844,677.1094 Q2191.375,676.8906 2190.75,676.8906 Q2189.9844,676.8906 2189.3438,677.2188 Q2188.7188,677.5469 2188.2188,678.2969 Q2187.7344,679.0469 2187.7344,680.0781 L2187.7344,681.1719 Q2187.7344,682.4063 2188.625,683.2344 Q2189.5156,684.0469 2191.1094,684.0469 Q2192.0469,684.0469 2192.7031,683.7969 Q2193.0938,683.6406 2193.5156,683.2031 Q2193.7813,682.9375 2193.9219,682.8594 Q2194.0781,682.7813 2194.2813,682.7813 Q2194.6094,682.7813 2194.8594,683.0469 Q2195.125,683.2969 2195.125,683.6406 Q2195.125,683.9844 2194.7813,684.3906 Q2194.2813,684.9688 2193.4844,685.2969 Q2192.4063,685.75 2191.1094,685.75 Q2189.5938,685.75 2188.3906,685.125 Q2187.4063,684.625 2186.7188,683.5625 Q2186.0313,682.4844 2186.0313,681.2031 L2186.0313,680.0469 Q2186.0313,678.7188 2186.6406,677.5781 Q2187.2656,676.4219 2188.3594,675.8125 Q2189.4531,675.1875 2190.6875,675.1875 Q2191.4219,675.1875 2192.0625,675.3594 Q2192.7188,675.5156 2193.2656,675.875 Z " fill="#000000"/><text fill="#000000" font-family="sans-serif" font-size="14" lengthAdjust="spacing" textLength="199.2061" x="2204.5" y="685.7969">ExampleAccommodationVariant</text><line style="stroke:#181818;stroke-width:0.5;" x1="2176.5" x2="2405.7061" y1="696" y2="696"/><line style="stroke:#181818;stroke-width:0.5;" x1="2176.5" x2="2405.7061" y1="704" y2="704"/></g><!--class LectureHall--><g id="elem_LectureHall"><rect codeLine="79" fill="#F1F1F1" height="48" id="LectureHall" rx="2.5" ry="2.5" style="stroke:#181818;stroke-width:0.5;" width="102.8135" x="2477.5" y="537.5"/><ellipse cx="2492.5" cy="553.5" fill="#ADD1B2" rx="11" ry="11" style="stroke:#181818;stroke-width:1.0;"/><path d="M2495.2656,549.375 Q2495.4219,549.1563 2495.6094,549.0469 Q2495.7969,548.9375 2496.0156,548.9375 Q2496.3906,548.9375 2496.625,549.2031 Q2496.8594,549.4531 2496.8594,550.0625 L2496.8594,551.5156 Q2496.8594,552.125 2496.625,552.3906 Q2496.3906,552.6563 2496.0156,552.6563 Q2495.6719,552.6563 2495.4688,552.4531 Q2495.2656,552.2656 2495.1563,551.75 Q2495.1094,551.3906 2494.9219,551.2031 Q2494.5938,550.8281 2493.9844,550.6094 Q2493.375,550.3906 2492.75,550.3906 Q2491.9844,550.3906 2491.3438,550.7188 Q2490.7188,551.0469 2490.2188,551.7969 Q2489.7344,552.5469 2489.7344,553.5781 L2489.7344,554.6719 Q2489.7344,555.9063 2490.625,556.7344 Q2491.5156,557.5469 2493.1094,557.5469 Q2494.0469,557.5469 2494.7031,557.2969 Q2495.0938,557.1406 2495.5156,556.7031 Q2495.7813,556.4375 2495.9219,556.3594 Q2496.0781,556.2813 2496.2813,556.2813 Q2496.6094,556.2813 2496.8594,556.5469 Q2497.125,556.7969 2497.125,557.1406 Q2497.125,557.4844 2496.7813,557.8906 Q2496.2813,558.4688 2495.4844,558.7969 Q2494.4063,559.25 2493.1094,559.25 Q2491.5938,559.25 2490.3906,558.625 Q2489.4063,558.125 2488.7188,557.0625 Q2488.0313,555.9844 2488.0313,554.7031 L2488.0313,553.5469 Q2488.0313,552.2188 2488.6406,551.0781 Q2489.2656,549.9219 2490.3594,549.3125 Q2491.4531,548.6875 2492.6875,548.6875 Q2493.4219,548.6875 2494.0625,548.8594 Q2494.7188,549.0156 2495.2656,549.375 Z " fill="#000000"/><text fill="#000000" font-family="sans-serif" font-size="14" lengthAdjust="spacing" textLength="70.8135" x="2506.5" y="559.2969">LectureHall</text><line style="stroke:#181818;stroke-width:0.5;" x1="2478.5" x2="2579.3135" y1="569.5" y2="569.5"/><line style="stroke:#181818;stroke-width:0.5;" x1="2478.5" x2="2579.3135" y1="577.5" y2="577.5"/></g><!--class Restaurant--><g id="elem_Restaurant"><rect codeLine="83" fill="#F1F1F1" height="48" id="Restaurant" rx="2.5" ry="2.5" style="stroke:#181818;stroke-width:0.5;" width="100.4824" x="2616" y="537.5"/><ellipse cx="2631" cy="553.5" fill="#ADD1B2" rx="11" ry="11" style="stroke:#181818;stroke-width:1.0;"/><path d="M2633.7656,549.375 Q2633.9219,549.1563 2634.1094,549.0469 Q2634.2969,548.9375 2634.5156,548.9375 Q2634.8906,548.9375 2635.125,549.2031 Q2635.3594,549.4531 2635.3594,550.0625 L2635.3594,551.5156 Q2635.3594,552.125 2635.125,552.3906 Q2634.8906,552.6563 2634.5156,552.6563 Q2634.1719,552.6563 2633.9688,552.4531 Q2633.7656,552.2656 2633.6563,551.75 Q2633.6094,551.3906 2633.4219,551.2031 Q2633.0938,550.8281 2632.4844,550.6094 Q2631.875,550.3906 2631.25,550.3906 Q2630.4844,550.3906 2629.8438,550.7188 Q2629.2188,551.0469 2628.7188,551.7969 Q2628.2344,552.5469 2628.2344,553.5781 L2628.2344,554.6719 Q2628.2344,555.9063 2629.125,556.7344 Q2630.0156,557.5469 2631.6094,557.5469 Q2632.5469,557.5469 2633.2031,557.2969 Q2633.5938,557.1406 2634.0156,556.7031 Q2634.2813,556.4375 2634.4219,556.3594 Q2634.5781,556.2813 2634.7813,556.2813 Q2635.1094,556.2813 2635.3594,556.5469 Q2635.625,556.7969 2635.625,557.1406 Q2635.625,557.4844 2635.2813,557.8906 Q2634.7813,558.4688 2633.9844,558.7969 Q2632.9063,559.25 2631.6094,559.25 Q2630.0938,559.25 2628.8906,558.625 Q2627.9063,558.125 2627.2188,557.0625 Q2626.5313,555.9844 2626.5313,554.7031 L2626.5313,553.5469 Q2626.5313,552.2188 2627.1406,551.0781 Q2627.7656,549.9219 2628.8594,549.3125 Q2629.9531,548.6875 2631.1875,548.6875 Q2631.9219,548.6875 2632.5625,548.8594 Q2633.2188,549.0156 2633.7656,549.375 Z " fill="#000000"/><text fill="#000000" font-family="sans-serif" font-size="14" lengthAdjust="spacing" textLength="68.4824" x="2645" y="559.2969">Restaurant</text><line style="stroke:#181818;stroke-width:0.5;" x1="2617" x2="2715.4824" y1="569.5" y2="569.5"/><line style="stroke:#181818;stroke-width:0.5;" x1="2617" x2="2715.4824" y1="577.5" y2="577.5"/></g><!--class SportsCentre--><g id="elem_SportsCentre"><rect codeLine="87" fill="#F1F1F1" height="48" id="SportsCentre" rx="2.5" ry="2.5" style="stroke:#181818;stroke-width:0.5;" width="114.4824" x="2751" y="537.5"/><ellipse cx="2766" cy="553.5" fill="#ADD1B2" rx="11" ry="11" style="stroke:#181818;stroke-width:1.0;"/><path d="M2768.7656,549.375 Q2768.9219,549.1563 2769.1094,549.0469 Q2769.2969,548.9375 2769.5156,548.9375 Q2769.8906,548.9375 2770.125,549.2031 Q2770.3594,549.4531 2770.3594,550.0625 L2770.3594,551.5156 Q2770.3594,552.125 2770.125,552.3906 Q2769.8906,552.6563 2769.5156,552.6563 Q2769.1719,552.6563 2768.9688,552.4531 Q2768.7656,552.2656 2768.6563,551.75 Q2768.6094,551.3906 2768.4219,551.2031 Q2768.0938,550.8281 2767.4844,550.6094 Q2766.875,550.3906 2766.25,550.3906 Q2765.4844,550.3906 2764.8438,550.7188 Q2764.2188,551.0469 2763.7188,551.7969 Q2763.2344,552.5469 2763.2344,553.5781 L2763.2344,554.6719 Q2763.2344,555.9063 2764.125,556.7344 Q2765.0156,557.5469 2766.6094,557.5469 Q2767.5469,557.5469 2768.2031,557.2969 Q2768.5938,557.1406 2769.0156,556.7031 Q2769.2813,556.4375 2769.4219,556.3594 Q2769.5781,556.2813 2769.7813,556.2813 Q2770.1094,556.2813 2770.3594,556.5469 Q2770.625,556.7969 2770.625,557.1406 Q2770.625,557.4844 2770.2813,557.8906 Q2769.7813,558.4688 2768.9844,558.7969 Q2767.9063,559.25 2766.6094,559.25 Q2765.0938,559.25 2763.8906,558.625 Q2762.9063,558.125 2762.2188,557.0625 Q2761.5313,555.9844 2761.5313,554.7031 L2761.5313,553.5469 Q2761.5313,552.2188 2762.1406,551.0781 Q2762.7656,549.9219 2763.8594,549.3125 Q2764.9531,548.6875 2766.1875,548.6875 Q2766.9219,548.6875 2767.5625,548.8594 Q2768.2188,549.0156 2768.7656,549.375 Z " fill="#000000"/><text fill="#000000" font-family="sans-serif" font-size="14" lengthAdjust="spacing" textLength="82.4824" x="2780" y="559.2969">SportsCentre</text><line style="stroke:#181818;stroke-width:0.5;" x1="2752" x2="2864.4824" y1="569.5" y2="569.5"/><line style="stroke:#181818;stroke-width:0.5;" x1="2752" x2="2864.4824" y1="577.5" y2="577.5"/></g><g id="elem_GMN30"><path d="M2080.5,772 L2080.5,799.291 A0,0 0 0 0 2080.5,799.291 L2501.8213,799.291 A0,0 0 0 0 2501.8213,799.291 L2501.8213,782 L2491.8213,772 L2295,772 L2291,712.12 L2287,772 L2080.5,772 A0,0 0 0 0 2080.5,772 " fill="#FEFFDD" style="stroke:#181818;stroke-width:0.5;"/><path d="M2491.8213,772 L2491.8213,782 L2501.8213,782 L2491.8213,772 " fill="#FEFFDD" style="stroke:#181818;stroke-width:0.5;"/><text fill="#000000" font-family="sans-serif" font-size="13" lengthAdjust="spacing" textLength="400.3213" x="2086.5" y="791.0283">Overrides fields and methods to hold any building-specific information</text></g><!--class BuildingHelper--><g id="elem_BuildingHelper"><rect codeLine="95" fill="#F1F1F1" height="103.8633" id="BuildingHelper" rx="2.5" ry="2.5" style="stroke:#181818;stroke-width:0.5;" width="349.7637" x="2005" y="107.5"/><ellipse cx="2130.1045" cy="123.5" fill="#ADD1B2" rx="11" ry="11" style="stroke:#181818;stroke-width:1.0;"/><path d="M2132.8701,119.375 Q2133.0264,119.1563 2133.2139,119.0469 Q2133.4014,118.9375 2133.6201,118.9375 Q2133.9951,118.9375 2134.2295,119.2031 Q2134.4639,119.4531 2134.4639,120.0625 L2134.4639,121.5156 Q2134.4639,122.125 2134.2295,122.3906 Q2133.9951,122.6563 2133.6201,122.6563 Q2133.2764,122.6563 2133.0732,122.4531 Q2132.8701,122.2656 2132.7607,121.75 Q2132.7139,121.3906 2132.5264,121.2031 Q2132.1982,120.8281 2131.5889,120.6094 Q2130.9795,120.3906 2130.3545,120.3906 Q2129.5889,120.3906 2128.9482,120.7188 Q2128.3232,121.0469 2127.8232,121.7969 Q2127.3389,122.5469 2127.3389,123.5781 L2127.3389,124.6719 Q2127.3389,125.9063 2128.2295,126.7344 Q2129.1201,127.5469 2130.7139,127.5469 Q2131.6514,127.5469 2132.3076,127.2969 Q2132.6982,127.1406 2133.1201,126.7031 Q2133.3857,126.4375 2133.5264,126.3594 Q2133.6826,126.2813 2133.8857,126.2813 Q2134.2139,126.2813 2134.4639,126.5469 Q2134.7295,126.7969 2134.7295,127.1406 Q2134.7295,127.4844 2134.3857,127.8906 Q2133.8857,128.4688 2133.0889,128.7969 Q2132.0107,129.25 2130.7139,129.25 Q2129.1982,129.25 2127.9951,128.625 Q2127.0107,128.125 2126.3232,127.0625 Q2125.6357,125.9844 2125.6357,124.7031 L2125.6357,123.5469 Q2125.6357,122.2188 2126.2451,121.0781 Q2126.8701,119.9219 2127.9639,119.3125 Q2129.0576,118.6875 2130.292,118.6875 Q2131.0264,118.6875 2131.667,118.8594 Q2132.3232,119.0156 2132.8701,119.375 Z " fill="#000000"/><text fill="#000000" font-family="sans-serif" font-size="14" lengthAdjust="spacing" textLength="91.0547" x="2150.6045" y="129.2969">BuildingHelper</text><line style="stroke:#181818;stroke-width:0.5;" x1="2006" x2="2353.7637" y1="139.5" y2="139.5"/><line style="stroke:#181818;stroke-width:0.5;" x1="2006" x2="2353.7637" y1="147.5" y2="147.5"/><text fill="#000000" font-family="sans-serif" font-size="14" lengthAdjust="spacing" textLength="336.998" x="2011" y="166.6074">void placeBuilding(Building building, Location location)</text><text fill="#000000" font-family="sans-serif" font-size="14" lengthAdjust="spacing" textLength="337.7637" x="2011" y="185.2285">void moveBuilding(Building building, Location location)</text><text fill="#000000" font-family="sans-serif" font-size="14" lengthAdjust="spacing" textLength="242.0537" x="2011" y="203.8496">void upgradeBuilding(Building building)</text></g><!--class IEvent--><g id="elem_IEvent"><rect codeLine="105" fill="#F1F1F1" height="85.2422" id="IEvent" rx="2.5" ry="2.5" style="stroke:#181818;stroke-width:0.5;" width="134.1719" x="1815" y="117"/><ellipse cx="1858.1171" cy="133" fill="#B4A7E5" rx="11" ry="11" style="stroke:#181818;stroke-width:1.0;"/><path d="M1859.0702,129.6406 L1859.0702,136.2969 L1860.789,136.2969 Q1861.3983,136.2969 1861.664,136.5313 Q1861.9296,136.7656 1861.9296,137.1563 Q1861.9296,137.5313 1861.664,137.7656 Q1861.3983,138 1860.789,138 L1855.6483,138 Q1855.039,138 1854.7733,137.7656 Q1854.5077,137.5313 1854.5077,137.1406 Q1854.5077,136.7656 1854.7733,136.5313 Q1855.039,136.2969 1855.6483,136.2969 L1857.3671,136.2969 L1857.3671,129.6406 L1855.6483,129.6406 Q1855.039,129.6406 1854.7733,129.4063 Q1854.5077,129.1719 1854.5077,128.7813 Q1854.5077,128.4063 1854.7733,128.1719 Q1855.039,127.9375 1855.6483,127.9375 L1860.789,127.9375 Q1861.3983,127.9375 1861.664,128.1719 Q1861.9296,128.4063 1861.9296,128.7813 Q1861.9296,129.1719 1861.664,129.4063 Q1861.3983,129.6406 1860.789,129.6406 L1859.0702,129.6406 Z " fill="#000000"/><text fill="#000000" font-family="sans-serif" font-size="14" font-style="italic" lengthAdjust="spacing" textLength="39.6895" x="1878.3653" y="138.7969">IEvent</text><line style="stroke:#181818;stroke-width:0.5;" x1="1816" x2="1948.1719" y1="149" y2="149"/><line style="stroke:#181818;stroke-width:0.5;" x1="1816" x2="1948.1719" y1="157" y2="157"/><text fill="#000000" font-family="sans-serif" font-size="14" lengthAdjust="spacing" textLength="122.1719" x="1821" y="176.1074">boolean isPositive()</text><text fill="#000000" font-family="sans-serif" font-size="14" lengthAdjust="spacing" textLength="87.9307" x="1821" y="194.7285">void execute()</text></g><!--class Event--><g id="elem_Event"><rect codeLine="110" fill="#F1F1F1" height="66.6211" id="Event" rx="2.5" ry="2.5" style="stroke:#181818;stroke-width:0.5;" width="113.1855" x="1835.5" y="345.5"/><ellipse cx="1870.9236" cy="361.5" fill="#A9DCDF" rx="11" ry="11" style="stroke:#181818;stroke-width:1.0;"/><path d="M1873.1111,363.2656 L1868.9705,363.2656 L1868.5486,364.2969 L1868.9705,364.2969 Q1869.5798,364.2969 1869.8455,364.5313 Q1870.1111,364.7656 1870.1111,365.1563 Q1870.1111,365.5313 1869.8455,365.7656 Q1869.5798,366 1868.9705,366 L1866.6736,366 Q1866.0642,366 1865.8142,365.7656 Q1865.5486,365.5313 1865.5486,365.1406 Q1865.5486,364.7656 1865.8298,364.5313 Q1866.0955,364.2813 1866.7205,364.2969 L1869.3923,357.6406 L1868.283,357.6406 Q1867.6736,357.6406 1867.408,357.4063 Q1867.1423,357.1719 1867.1423,356.7813 Q1867.1423,356.4063 1867.408,356.1719 Q1867.6736,355.9375 1868.283,355.9375 L1871.9548,355.9375 L1875.3455,364.2969 Q1875.9392,364.2969 1876.1267,364.4375 Q1876.5173,364.7031 1876.5173,365.1563 Q1876.5173,365.5313 1876.2517,365.7656 Q1876.0017,366 1875.3923,366 L1873.0955,366 Q1872.4861,366 1872.2205,365.7656 Q1871.9548,365.5313 1871.9548,365.1406 Q1871.9548,364.7656 1872.2205,364.5313 Q1872.4861,364.2969 1873.0955,364.2969 L1873.5173,364.2969 L1873.1111,363.2656 Z M1872.3923,361.5625 L1871.033,358.1875 L1869.658,361.5625 L1872.3923,361.5625 Z " fill="#000000"/><text fill="#000000" font-family="sans-serif" font-size="14" font-style="italic" lengthAdjust="spacing" textLength="35.7998" x="1889.4622" y="367.2969">Event</text><line style="stroke:#181818;stroke-width:0.5;" x1="1836.5" x2="1947.6855" y1="377.5" y2="377.5"/><text fill="#000000" font-family="sans-serif" font-size="14" lengthAdjust="spacing" textLength="101.1855" x="1841.5" y="396.6074">boolean positive</text><line style="stroke:#181818;stroke-width:0.5;" x1="1836.5" x2="1947.6855" y1="404.1211" y2="404.1211"/></g><!--class ExampleEvent--><g id="elem_ExampleEvent"><rect codeLine="114" fill="#F1F1F1" height="85.2422" id="ExampleEvent" rx="2.5" ry="2.5" style="stroke:#181818;stroke-width:0.5;" width="152.0547" x="1782" y="519"/><ellipse cx="1810.4038" cy="535" fill="#ADD1B2" rx="11" ry="11" style="stroke:#181818;stroke-width:1.0;"/><path d="M1813.1694,530.875 Q1813.3256,530.6563 1813.5131,530.5469 Q1813.7006,530.4375 1813.9194,530.4375 Q1814.2944,530.4375 1814.5288,530.7031 Q1814.7631,530.9531 1814.7631,531.5625 L1814.7631,533.0156 Q1814.7631,533.625 1814.5288,533.8906 Q1814.2944,534.1563 1813.9194,534.1563 Q1813.5756,534.1563 1813.3725,533.9531 Q1813.1694,533.7656 1813.06,533.25 Q1813.0131,532.8906 1812.8256,532.7031 Q1812.4975,532.3281 1811.8881,532.1094 Q1811.2788,531.8906 1810.6538,531.8906 Q1809.8881,531.8906 1809.2475,532.2188 Q1808.6225,532.5469 1808.1225,533.2969 Q1807.6381,534.0469 1807.6381,535.0781 L1807.6381,536.1719 Q1807.6381,537.4063 1808.5288,538.2344 Q1809.4194,539.0469 1811.0131,539.0469 Q1811.9506,539.0469 1812.6069,538.7969 Q1812.9975,538.6406 1813.4194,538.2031 Q1813.685,537.9375 1813.8256,537.8594 Q1813.9819,537.7813 1814.185,537.7813 Q1814.5131,537.7813 1814.7631,538.0469 Q1815.0288,538.2969 1815.0288,538.6406 Q1815.0288,538.9844 1814.685,539.3906 Q1814.185,539.9688 1813.3881,540.2969 Q1812.31,540.75 1811.0131,540.75 Q1809.4975,540.75 1808.2944,540.125 Q1807.31,539.625 1806.6225,538.5625 Q1805.935,537.4844 1805.935,536.2031 L1805.935,535.0469 Q1805.935,533.7188 1806.5444,532.5781 Q1807.1694,531.4219 1808.2631,530.8125 Q1809.3569,530.1875 1810.5913,530.1875 Q1811.3256,530.1875 1811.9663,530.3594 Q1812.6225,530.5156 1813.1694,530.875 Z " fill="#000000"/><text fill="#000000" font-family="sans-serif" font-size="14" lengthAdjust="spacing" textLength="90.2686" x="1827.3824" y="540.7969">ExampleEvent</text><line style="stroke:#181818;stroke-width:0.5;" x1="1783" x2="1933.0547" y1="551" y2="551"/><text fill="#000000" font-family="sans-serif" font-size="14" lengthAdjust="spacing" textLength="140.0547" x="1788" y="570.1074">String someOtherField</text><line style="stroke:#181818;stroke-width:0.5;" x1="1783" x2="1933.0547" y1="577.6211" y2="577.6211"/><text fill="#000000" font-family="sans-serif" font-size="14" lengthAdjust="spacing" textLength="87.9307" x="1788" y="596.7285">void execute()</text></g><g id="elem_GMN40"><path d="M1737.5,665.5 L1737.5,710.082 A0,0 0 0 0 1737.5,710.082 L1948.5425,710.082 A0,0 0 0 0 1948.5425,710.082 L1948.5425,675.5 L1938.5425,665.5 L1849.6,665.5 L1852.96,604.3 L1841.6,665.5 L1737.5,665.5 A0,0 0 0 0 1737.5,665.5 " fill="#FEFFDD" style="stroke:#181818;stroke-width:0.5;"/><path d="M1938.5425,665.5 L1938.5425,675.5 L1948.5425,675.5 L1938.5425,665.5 " fill="#FEFFDD" style="stroke:#181818;stroke-width:0.5;"/><text fill="#000000" font-family="sans-serif" font-size="13" lengthAdjust="spacing" textLength="190.0425" x="1743.5" y="684.5283">ExampleEvent overrides execute</text><text fill="#000000" font-family="sans-serif" font-size="13" lengthAdjust="spacing" textLength="168.3652" x="1743.5" y="701.8193">to perform functions of event.</text></g><!--class EventManager--><g id="elem_EventManager"><rect codeLine="124" fill="#F1F1F1" height="66.6211" id="EventManager" rx="2.5" ry="2.5" style="stroke:#181818;stroke-width:0.5;" width="123.0547" x="1599.5" y="126"/><ellipse cx="1614.5" cy="142" fill="#ADD1B2" rx="11" ry="11" style="stroke:#181818;stroke-width:1.0;"/><path d="M1617.2656,137.875 Q1617.4219,137.6563 1617.6094,137.5469 Q1617.7969,137.4375 1618.0156,137.4375 Q1618.3906,137.4375 1618.625,137.7031 Q1618.8594,137.9531 1618.8594,138.5625 L1618.8594,140.0156 Q1618.8594,140.625 1618.625,140.8906 Q1618.3906,141.1563 1618.0156,141.1563 Q1617.6719,141.1563 1617.4688,140.9531 Q1617.2656,140.7656 1617.1563,140.25 Q1617.1094,139.8906 1616.9219,139.7031 Q1616.5938,139.3281 1615.9844,139.1094 Q1615.375,138.8906 1614.75,138.8906 Q1613.9844,138.8906 1613.3438,139.2188 Q1612.7188,139.5469 1612.2188,140.2969 Q1611.7344,141.0469 1611.7344,142.0781 L1611.7344,143.1719 Q1611.7344,144.4063 1612.625,145.2344 Q1613.5156,146.0469 1615.1094,146.0469 Q1616.0469,146.0469 1616.7031,145.7969 Q1617.0938,145.6406 1617.5156,145.2031 Q1617.7813,144.9375 1617.9219,144.8594 Q1618.0781,144.7813 1618.2813,144.7813 Q1618.6094,144.7813 1618.8594,145.0469 Q1619.125,145.2969 1619.125,145.6406 Q1619.125,145.9844 1618.7813,146.3906 Q1618.2813,146.9688 1617.4844,147.2969 Q1616.4063,147.75 1615.1094,147.75 Q1613.5938,147.75 1612.3906,147.125 Q1611.4063,146.625 1610.7188,145.5625 Q1610.0313,144.4844 1610.0313,143.2031 L1610.0313,142.0469 Q1610.0313,140.7188 1610.6406,139.5781 Q1611.2656,138.4219 1612.3594,137.8125 Q1613.4531,137.1875 1614.6875,137.1875 Q1615.4219,137.1875 1616.0625,137.3594 Q1616.7188,137.5156 1617.2656,137.875 Z " fill="#000000"/><text fill="#000000" font-family="sans-serif" font-size="14" lengthAdjust="spacing" textLength="91.0547" x="1628.5" y="147.7969">EventManager</text><line style="stroke:#181818;stroke-width:0.5;" x1="1600.5" x2="1721.5547" y1="158" y2="158"/><text fill="#000000" font-family="sans-serif" font-size="14" lengthAdjust="spacing" textLength="104.2754" x="1605.5" y="177.1074">Random random</text><line style="stroke:#181818;stroke-width:0.5;" x1="1600.5" x2="1721.5547" y1="184.6211" y2="184.6211"/></g><g id="elem_GMN44"><path d="M1522,365.5 L1522,392.791 A0,0 0 0 0 1522,392.791 L1800.0864,392.791 A0,0 0 0 0 1800.0864,392.791 L1800.0864,375.5 L1790.0864,365.5 L1665,365.5 L1661,193.06 L1657,365.5 L1522,365.5 A0,0 0 0 0 1522,365.5 " fill="#FEFFDD" style="stroke:#181818;stroke-width:0.5;"/><path d="M1790.0864,365.5 L1790.0864,375.5 L1800.0864,375.5 L1790.0864,365.5 " fill="#FEFFDD" style="stroke:#181818;stroke-width:0.5;"/><text fill="#000000" font-family="sans-serif" font-size="13" lengthAdjust="spacing" textLength="257.0864" x="1528" y="384.5283">Responsible for randomly "spawning" events</text></g><!--class MainMenu--><g id="elem_MainMenu"><rect codeLine="156" fill="#F1F1F1" height="48" id="MainMenu" rx="2.5" ry="2.5" style="stroke:#181818;stroke-width:0.5;" width="97.3652" x="1154.5" y="135.5"/><ellipse cx="1169.5" cy="151.5" fill="#ADD1B2" rx="11" ry="11" style="stroke:#181818;stroke-width:1.0;"/><path d="M1172.2656,147.375 Q1172.4219,147.1563 1172.6094,147.0469 Q1172.7969,146.9375 1173.0156,146.9375 Q1173.3906,146.9375 1173.625,147.2031 Q1173.8594,147.4531 1173.8594,148.0625 L1173.8594,149.5156 Q1173.8594,150.125 1173.625,150.3906 Q1173.3906,150.6563 1173.0156,150.6563 Q1172.6719,150.6563 1172.4688,150.4531 Q1172.2656,150.2656 1172.1563,149.75 Q1172.1094,149.3906 1171.9219,149.2031 Q1171.5938,148.8281 1170.9844,148.6094 Q1170.375,148.3906 1169.75,148.3906 Q1168.9844,148.3906 1168.3438,148.7188 Q1167.7188,149.0469 1167.2188,149.7969 Q1166.7344,150.5469 1166.7344,151.5781 L1166.7344,152.6719 Q1166.7344,153.9063 1167.625,154.7344 Q1168.5156,155.5469 1170.1094,155.5469 Q1171.0469,155.5469 1171.7031,155.2969 Q1172.0938,155.1406 1172.5156,154.7031 Q1172.7813,154.4375 1172.9219,154.3594 Q1173.0781,154.2813 1173.2813,154.2813 Q1173.6094,154.2813 1173.8594,154.5469 Q1174.125,154.7969 1174.125,155.1406 Q1174.125,155.4844 1173.7813,155.8906 Q1173.2813,156.4688 1172.4844,156.7969 Q1171.4063,157.25 1170.1094,157.25 Q1168.5938,157.25 1167.3906,156.625 Q1166.4063,156.125 1165.7188,155.0625 Q1165.0313,153.9844 1165.0313,152.7031 L1165.0313,151.5469 Q1165.0313,150.2188 1165.6406,149.0781 Q1166.2656,147.9219 1167.3594,147.3125 Q1168.4531,146.6875 1169.6875,146.6875 Q1170.4219,146.6875 1171.0625,146.8594 Q1171.7188,147.0156 1172.2656,147.375 Z " fill="#000000"/><text fill="#000000" font-family="sans-serif" font-size="14" lengthAdjust="spacing" textLength="65.3652" x="1183.5" y="157.2969">MainMenu</text><line style="stroke:#181818;stroke-width:0.5;" x1="1155.5" x2="1250.8652" y1="167.5" y2="167.5"/><line style="stroke:#181818;stroke-width:0.5;" x1="1155.5" x2="1250.8652" y1="175.5" y2="175.5"/></g><!--class PauseMenu--><g id="elem_PauseMenu"><rect codeLine="160" fill="#F1F1F1" height="48" id="PauseMenu" rx="2.5" ry="2.5" style="stroke:#181818;stroke-width:0.5;" width="106.7168" x="1012.5" y="135.5"/><ellipse cx="1027.5" cy="151.5" fill="#ADD1B2" rx="11" ry="11" style="stroke:#181818;stroke-width:1.0;"/><path d="M1030.2656,147.375 Q1030.4219,147.1563 1030.6094,147.0469 Q1030.7969,146.9375 1031.0156,146.9375 Q1031.3906,146.9375 1031.625,147.2031 Q1031.8594,147.4531 1031.8594,148.0625 L1031.8594,149.5156 Q1031.8594,150.125 1031.625,150.3906 Q1031.3906,150.6563 1031.0156,150.6563 Q1030.6719,150.6563 1030.4688,150.4531 Q1030.2656,150.2656 1030.1563,149.75 Q1030.1094,149.3906 1029.9219,149.2031 Q1029.5938,148.8281 1028.9844,148.6094 Q1028.375,148.3906 1027.75,148.3906 Q1026.9844,148.3906 1026.3438,148.7188 Q1025.7188,149.0469 1025.2188,149.7969 Q1024.7344,150.5469 1024.7344,151.5781 L1024.7344,152.6719 Q1024.7344,153.9063 1025.625,154.7344 Q1026.5156,155.5469 1028.1094,155.5469 Q1029.0469,155.5469 1029.7031,155.2969 Q1030.0938,155.1406 1030.5156,154.7031 Q1030.7813,154.4375 1030.9219,154.3594 Q1031.0781,154.2813 1031.2813,154.2813 Q1031.6094,154.2813 1031.8594,154.5469 Q1032.125,154.7969 1032.125,155.1406 Q1032.125,155.4844 1031.7813,155.8906 Q1031.2813,156.4688 1030.4844,156.7969 Q1029.4063,157.25 1028.1094,157.25 Q1026.5938,157.25 1025.3906,156.625 Q1024.4063,156.125 1023.7188,155.0625 Q1023.0313,153.9844 1023.0313,152.7031 L1023.0313,151.5469 Q1023.0313,150.2188 1023.6406,149.0781 Q1024.2656,147.9219 1025.3594,147.3125 Q1026.4531,146.6875 1027.6875,146.6875 Q1028.4219,146.6875 1029.0625,146.8594 Q1029.7188,147.0156 1030.2656,147.375 Z " fill="#000000"/><text fill="#000000" font-family="sans-serif" font-size="14" lengthAdjust="spacing" textLength="74.7168" x="1041.5" y="157.2969">PauseMenu</text><line style="stroke:#181818;stroke-width:0.5;" x1="1013.5" x2="1118.2168" y1="167.5" y2="167.5"/><line style="stroke:#181818;stroke-width:0.5;" x1="1013.5" x2="1118.2168" y1="175.5" y2="175.5"/></g><!--link GMN9 to map--><g id="link_GMN9_map"><path d="M621.67,173.22 C595.32,189.08 547.48,215.84 503,230 C480.72,237.09 467.39,221.32 451,238 C448.2925,240.7563 445.9636,244.9539 443.9611,250.1965 C443.7108,250.8518 443.4656,251.5235 443.2254,252.2107 C443.1053,252.5543 442.9864,252.9018 442.8688,253.2531 C442.81,253.4287 442.7515,253.6053 442.6933,253.7828 " fill="none" id="GMN9-map" style="stroke:#181818;stroke-width:1.0;stroke-dasharray:7.0,7.0;"/></g><!--reverse link IBuilding to Building--><g id="link_IBuilding_Building"><path d="M2596.8315,245.1655 C2613.5915,270.1355 2622.45,283.33 2639.22,308.31 " fill="none" id="IBuilding-backto-Building" style="stroke:#181818;stroke-width:1.0;stroke-dasharray:7.0,7.0;"/><polygon fill="none" points="2586.8,230.22,2591.8497,248.5094,2601.8134,241.8217,2586.8,230.22" style="stroke:#181818;stroke-width:1.0;"/></g><!--reverse link Building to Accommodation--><g id="link_Building_Accommodation"><path d="M2595.6146,460.8568 C2572.5846,479.0468 2560.48,486.01 2534,499 C2530.91,500.52 2471.54,515.55 2412.26,530.37 " fill="none" id="Building-backto-Accommodation" style="stroke:#181818;stroke-width:1.0;"/><polygon fill="none" points="2609.74,449.7,2591.8957,456.1483,2599.3335,465.5652,2609.74,449.7" style="stroke:#181818;stroke-width:1.0;"/></g><!--reverse link Accommodation to ExampleAccommodationVariant--><g id="link_Accommodation_ExampleAccommodationVariant"><path d="M2291,613.21 C2291,634.82 2291,644.62 2291,663.94 " fill="none" id="Accommodation-backto-ExampleAccommodationVariant" style="stroke:#181818;stroke-width:1.0;"/><polygon fill="none" points="2291,595.21,2285,613.21,2297,613.21,2291,595.21" style="stroke:#181818;stroke-width:1.0;"/></g><!--reverse link Building to LectureHall--><g id="link_Building_LectureHall"><path d="M2613.7061,463.1105 C2586.7561,494.0905 2568.63,514.94 2549.34,537.11 " fill="none" id="Building-backto-LectureHall" style="stroke:#181818;stroke-width:1.0;"/><polygon fill="none" points="2625.52,449.53,2609.1792,459.1726,2618.2329,467.0485,2625.52,449.53" style="stroke:#181818;stroke-width:1.0;"/></g><!--reverse link Building to Restaurant--><g id="link_Building_Restaurant"><path d="M2676.3135,467.42 C2672.8735,498.4 2671.05,514.94 2668.59,537.11 " fill="none" id="Building-backto-Restaurant" style="stroke:#181818;stroke-width:1.0;"/><polygon fill="none" points="2678.3,449.53,2670.3502,466.7579,2682.2768,468.0822,2678.3,449.53" style="stroke:#181818;stroke-width:1.0;"/></g><!--reverse link Building to SportsCentre--><g id="link_Building_SportsCentre"><path d="M2743.0732,464.4407 C2764.0232,495.4207 2777.21,514.94 2792.19,537.11 " fill="none" id="Building-backto-SportsCentre" style="stroke:#181818;stroke-width:1.0;"/><polygon fill="none" points="2732.99,449.53,2738.103,467.8018,2748.0435,461.0796,2732.99,449.53" style="stroke:#181818;stroke-width:1.0;"/></g><!--reverse link IEvent to Event--><g id="link_IEvent_Event"><path d="M1884.7438,220.1611 C1886.6538,261.8511 1888.74,307.14 1890.5,345.33 " fill="none" id="IEvent-backto-Event" style="stroke:#181818;stroke-width:1.0;stroke-dasharray:7.0,7.0;"/><polygon fill="none" points="1883.92,202.18,1878.7501,220.4357,1890.7375,219.8865,1883.92,202.18" style="stroke:#181818;stroke-width:1.0;"/></g><!--reverse link Event to ExampleEvent--><g id="link_Event_ExampleEvent"><path d="M1882.5113,430.3795 C1876.9113,460.1395 1871.93,486.56 1865.85,518.84 " fill="none" id="Event-backto-ExampleEvent" style="stroke:#181818;stroke-width:1.0;"/><polygon fill="none" points="1885.84,412.69,1876.6148,429.27,1888.4078,431.4891,1885.84,412.69" style="stroke:#181818;stroke-width:1.0;"/></g><!--SRC=[fLPHRziu37xFhn3wiXIu2t30FGr5W3HBsW9DKoJPuVOeoxGZJ9OCIUuI3FtlHzcIBSTUUi3wqDWKHNuaFvB-HDQ2MWkIb9HzfpcOYG5B39HKKwiqaKh2n9yHhcOvjySgcO7C_yh_9dTtQqqBcC_9pyc411kae2KA2FunGOqXpufHovNqGa8oeQWbfzxRkVUMW_rtUdif-jQAtXHF4IOgULkN1z_ymRavU9z4UEvL9LCkytjrQY6r6Aqgdo6p8-8Tpuy3UQAiLSNOZUOaliIb1Ms0MJED8IJTymZOJPjCjCsDlTicnb8cO4wKVpBnyNt5XRCs9wMW3DBm7fGIfGHGIHYLhqxXVq6HoWBHBXIYCWVfy-UR3mtSU8_B8x3lXl2Cs2EGdB-1ZFK6oI5KdhlOYD9Ueuc7926WMIq7cTRm7D0QROqLo-MG8XDhfLUj4fg8CtfXeahH2fSD6gGlciYv16SkDXRO7Fmr77SwLK52Lj5m2TgUsn8TLelbuzFBWtzTB9VRpMRxPN5ushvusMwrtArgmUAv5UqFYw-xnSiXpdgTaWo39a_t7OYBdlY2HQUImLghOjggAGnEttQfTPfBYY5nUvvUoYkjGTgznSH8vERj69r2e7DtuqB8mGniAcEdFGfHBAYcp8OU34XvKGeedEEHA9qrq-0AwACJrWT-7NOom1nRGhZ-zHTi7ZRcWZ5L52fjkXrEE4NJAAwVyK3A1V9Fz6wiAydSxtJOQ9wyFVL0B-GiKn9JMJ4tdt-eIgI4fkc0aRCUzT3cPGREm_u9eQrEr5Mb1-0VgZd5L8L0- -7xtkWbw1cRkTBmI8KOIy_mmWwGofMElLpLtvTAMxF4scluw4QTs6OakznUYT1dUli6MlCK1r36GQHkAgMa07jK-8pPF2gNU9nK8Qr_cX8OppX3HcLA5rtPnb8SO3w2m6BqsL8Fkg3GzNHmz4UtOuH_w6s_Ghtznksgp3LDhnY8-FeUpqd0kMv3rgFHjVBo_lhXvbKPRd4Pz7Swd81L5gxEZiPYF3Z6VPJUmv0vllpDjS2Slf6zrIvgemhOkc6wTYpu4EaupMhB_cxFjMf9vgrv9UGNiiAnY6H-JXXdhyxnbRvrnnigiHmTfNP8N4IZwvzhMAFBuIgO4ZtpH011CDu6hj4RKz8V4lDpqq0ouwkuGNNW1InnabeFQh2b8uN9cDkK6so9iok7HTNBHTruUS1DlhSKhJQ12-KuIuNRZPt0BQz6vkjMbnBdPv3MMhHmQ2853NLJZUiCuccXr0OUcayCgyz8IEoBsMLyjHP-ibeNO5LstoLkuY0BSom87ZLrfe9LWhQ4yCkH61GPx3TtyAiF6UoLAlHd-BRaSXD9UptoIYi3WrFyzpxv3m00]--></g></svg>